<svg xmlns="http://www.w3.org/2000/svg" width="1038.125" height="172.25" viewBox="0 0 1038.125 172.25"><g clip-path="url(#clip0_331_9985)" transform="matrix(3.82895 0 0 3.82895 0 -.019)"><path d="M268.237 42.835h-.302a.085.085 0 0 1-.012-.044c0-.015.004-.03.012-.044.031-.035.093 0 .124-.153.054-.261.078-.527.073-.793 0-.307-.042-.594-.042-.702 0-.107-.023-.241-.023-.268 0-.027 0-.061-.027-.061a1.242 1.242 0 0 0-.213 0 .534.534 0 0 0-.271.08 1.054 1.054 0 0 0-.073.161c0 .023-.035 0-.054 0-.02 0-.074 0-.07-.065a1.377 1.377 0 0 1 0-.203v-.119c0-.057 0-.11.081-.092.081.02.062.042.105.046.042.004.444-.053.572-.061.127-.008.433-.027.53-.027.06.008.121.008.181 0a.769.769 0 0 0 .136-.054c.046 0 .081-.03.104 0a.347.347 0 0 1 .062.2c.019.075.026.152.019.23 0 .023-.05.05-.085 0s-.039-.089-.097-.138a.154.154 0 0 0-.116-.035 1.095 1.095 0 0 0-.162 0h-.135c-.066 0-.143 0-.139.03.003.031 0 .177.027.246.02.149.032.298.034.448.011.184.011.368 0 .552 0 .142 0 .31-.023.383-.023.073-.046.211-.042.238.005.036.021.07.046.096 0 .034.05.042.043.084-.008.042-.136.023-.136.023zM271.103 42.839h-.387a.112.112 0 0 1 0-.096c.116-.042.054-.15.047-.215a4.834 4.834 0 0 0-.151-.724c0-.057-.039-.16-.05-.218-.012-.058 0-.065 0-.08a.569.569 0 0 1-.024-.1.712.712 0 0 0-.031-.1s-.019.034-.023.038a2.185 2.185 0 0 0-.054.169c-.046.188-.066.349-.1.475 0 .05-.031.107 0 .15.031.042.034 0 .042.03.01.013.016.027.019.042v.027c0 .027 0 .05-.061.046-.062-.004-.182 0-.248 0a.562.562 0 0 0-.116 0 .753.753 0 0 1-.085 0 .166.166 0 0 1 0-.103c.124-.046.07-.157.05-.234-.019-.077-.073-.31-.104-.383a.67.67 0 0 0-.05-.13V41.508a2.405 2.405 0 0 0-.12.406c-.049.214-.086.43-.112.648a.213.213 0 0 0 0 .122c0 .023.042.027.058.039.015.011 0 0 0 0s0 .092-.051.096h-.355a1.387 1.387 0 0 1-.236-.035c0-.023 0-.08.027-.096.027-.015 0 0 .019 0 .02 0 .058-.065.066-.107.008-.042.043-.276.058-.383 0 0 0-.058.023-.115 0-.042.023-.115.027-.13.02-.096.051-.234.07-.307.019-.073.077-.276.085-.299.008-.023.027-.092.043-.134.044-.148.1-.293.166-.433a.37.37 0 0 1 .038-.096 1.26 1.26 0 0 1 .097-.184h.081a.291.291 0 0 1 .078 0c0 .05.034.111.05.177l.1.41c.008.045.018.09.031.134 0 .03 0 .088.035.122.035.035 0 .07.027.073l.062-.241.178-.487a.689.689 0 0 1 .05-.146c.031-.057.031-.042.043-.045h.031a.121.121 0 0 1 .038 0h.062v.03a.973.973 0 0 0 .019.077c.028.1.047.191.113.471 0 .054 0 .104.034.153.035.05 0 .085.027.111.024.089.058.257.066.284.008.027 0 .035 0 .061.054.2.101.36.151.606 0 .042.027.096.027.115 0 .019.027.134.039.176.007.046.024.09.05.13a.122.122 0 0 0 .042.035c.024 0 .043 0 .043.038s-.027.038-.054.054zM6.963 1.088l-1.087.02c-3.673.065-4.148.126-4.616.593-.38.421-.588.968-.58 1.533a1.758 1.758 0 0 0 .982 1.625l.87.272.282.076c.035.35.147 1.399.147 1.399l.344 3.449c.282 2.682.65 4.598.998 6.445l.123.643.275 1.445.626 3.065c0-.03.255 1.43.255 1.43l.414 2.16.468 2.3.549 2.682c0 .027.387 1.632.387 1.632.332 1.403.641 2.725 1.237 4.568l.549 1.678 1.07 3.065.387 1.058a2.43 2.43 0 0 0 1.137 1.602l.035.026h.039c1.12.656 3.866.49 4.64-.51.328-.382.656-1.333 2.342-7.755l.499-1.916.51-2.046.081-.34c0 .13.047.279.062.382l.36 2.012c.417 1.916 1.461 5.748 1.883 7.142 0 .023.386 1.319.386 1.319a4.9 4.9 0 0 0 .746 1.823 2.214 2.214 0 0 0 1.987.908h.387l.387.054c.592.138 1.214.05 1.744-.245.595-.352.87-.517 3.955-11.273l.116-.41.72-2.467 2.706-9.197 1.573-5.276.723-2.452.773-2.476.894-3c.085-.26.208-.506.363-.732 1.052-.406 1.697-.93 1.875-1.582v.069l.035-.073a1.557 1.557 0 0 0 .066-1.533c-.418-.74-1.319-.87-2.13-.93l-3.001-.147-1.813-.069c-1.067-.026-1.972 0-2.51.675a1.463 1.463 0 0 0-.328.95c.006.244.044.486.112.72l.043.173v.046c.095.302.275.571.52.775.244.204.543.334.86.374a.584.584 0 0 1 .03.073c-.065.215-.154.518-.154.518 0-.062-.387 1.249-.387 1.249l-1.368 4.724c0-.027-.654 2.46-.654 2.46-.591 2.242-1.84 6.978-2.752 10.135-.035-.168-.074-.33-.109-.498l-.495-2.299c-.425-1.84-.653-3.449-.893-5.13l-.421-2.81a13.127 13.127 0 0 1-.166-1.915c-.03-.425.029-.851.17-1.253.374-.181.69-.46.914-.808.225-.348.348-.75.358-1.162a2.167 2.167 0 0 0 0-.222 1.716 1.716 0 0 0-.612-1.136 1.746 1.746 0 0 0-1.236-.397c-.859 0-3.867.265-6.72.521l-.677.062h-.08a2.043 2.043 0 0 0-1.454.766c-.21.304-.319.666-.31 1.035.002.16.017.32.047.479.104.591.433 1.12.92 1.479l.07.057.065 1.464c.178 1.088.41 2.966.495 3.697a43.854 43.854 0 0 0-1.964 4.947c-.097.272-.201.567-.31.866-.258-1.257-.53-2.701-.645-3.57-.248-1.465-1.245-8.515-1.373-10.147l-.104-1.173c-.077-.805-.205-2.161-.205-2.912v-.146l.325-.168a2.186 2.186 0 0 0 1.117-.843c.435-.44.691-1.024.72-1.64 0-.244-.051-.486-.151-.71-.546-1.187-2.104-1.187-2.618-1.187l-2.505-.103a30.428 30.428 0 0 0-3.325-.062Z"/><path d="m40.724 22.297-.491.023a8.839 8.839 0 0 0-3.967 1.314c-1.303.724-3.186 2.629-3.186 4.533 0 1.012.862 2.161 1.69 2.682-.524.353-1.025.737-1.5 1.15a9.183 9.183 0 0 0-1.134 1.375 8.206 8.206 0 0 0-1.16 4.039c0 1.533.7 3.717 2.228 4.924a6.877 6.877 0 0 0 4.473 1.62c.533 0 2.374-.084 3.58-1.149.273-.216.532-.45.773-.701.13.17.277.328.437.471l.282.295c.04.03-.058-.084-.058-.084l.167.195.301.215a4.46 4.46 0 0 0 2.003.563c1.52 0 2.533-.383 3.507-1.364l.073-.069.182-.257.19-.249.112-.122c.251-.342.424-.734.506-1.15l.07-.245a1.545 1.545 0 0 0-.217-1.39 1.57 1.57 0 0 0-1.256-.652h-.043c0-.384-.043-.943-.043-.943l-.077-2.196.047-1.207v-1.115l-.07-1.582-.081-1.334a7.15 7.15 0 0 0-.422-2.827l-.073-.13-.499-1.089a6.993 6.993 0 0 0-2.687-2.809c-.984-.41-2.029-.66-3.093-.743zm-5.228 5.809c0-.341.348-.89.812-1.407l.197.579.325.326c.183.134.318.322.387.536-.027.073-.07.173-.07.173s-.05.141-.108.28c-.109.094-.225.18-.348.256a3.453 3.453 0 0 1-.677-.046 1.82 1.82 0 0 1-.518-.697zm5.595-1.15.03.096v.13c.05.093.083.195.097.3v.742l-.05.384v.053a7.457 7.457 0 0 1-.773.161h-.054l-.112.023-.774.169c.123-.282.189-.586.194-.893a2 2 0 0 0-.081-.563 3.586 3.586 0 0 0-.433-.977c.245-.196.504-.377.773-.54a1.624 1.624 0 0 1 1.183.896zm1.546-2.004c.194.043.384.1.569.169a4.565 4.565 0 0 1 1.759 1.873l.19.426.386.766-.073-.134c.164.592.232 1.207.2 1.82l.136 2.939v1.268-.13l-.043 1.184.081 2.3.055 1.195c0-.046.03.383.03.383v.21s.028 1.15.851 1.556l-.317-.226c.111.095.23.181.356.257a2.142 2.142 0 0 1-1.667.544 2.065 2.065 0 0 1-.773-.25l-.081-.083c.017.026.036.05.058.072l-.089-.103-.27-.238.077.058a3.177 3.177 0 0 1-.507-.9l-.178-.729-1.009-.23.476.104-1.33-.322-.24.586-.36.426c-.363.452-.764.874-1.198 1.26a3.675 3.675 0 0 1-2.034.533c-1.136 0-1.886-.276-2.977-1.108-.719-.567-1.299-1.915-1.299-3.034.044-.942.309-1.86.773-2.682a6.83 6.83 0 0 1 .774-.97c1.99-1.743 3.023-1.97 5.8-2.56.649-.08 1.898-.318 2.38-.923a2.539 2.539 0 0 0 .484-1.682l.046-.383v-.767a6.04 6.04 0 0 0-.232-1.226 3.418 3.418 0 0 0-.823-1.268Z"/><path d="m39.261 30.477-.216.092-.178.085a5.83 5.83 0 0 0-1.697 1.62l-.155.273-.135.437a4.767 4.767 0 0 0-.302 1.666v1.1c.04.858.347 1.682.878 2.36l.17.338.32.184c.384.229.798.403 1.23.517l.147.034h.387c2.32 0 2.776-.996 3.286-2.636l.124-.383a20.91 20.91 0 0 0 .317-2.728l.035-1.15.054-.115v-.59c0-.992-.866-1.686-2.1-1.682a5.889 5.889 0 0 0-2.165.578zm.97 2.2c.263-.116.531-.217.805-.303 0 .383-.039 1.05-.039 1.05 0 .265-.154 1.759-.224 2.066l-.108.352a4.87 4.87 0 0 1-.333.9c-.213.028-.427.04-.642.039a2.818 2.818 0 0 1-.36-.154l-.038-.038a1.969 1.969 0 0 1-.286-.843V34.65c.002-.314.064-.624.182-.915l.108-.3c.244-.284.528-.533.843-.739zM55.422 11.652h-.224c-.047 0-4.752 0-5.82.51l-.618.287-.046.61-.105.984c0 1.506 1.133 1.625 1.346 1.637l.124.045c.077.027.286.112.347 1.188.14 2.453.16 4.982.174 7.415l.058 4.291.043 2.016.023 2.011.031 2.614c.054 3.831-.414 4.816-.816 4.98l-.386.139-.279.433-.328 1.042v.295c0 1.468 1.013 1.858 1.608 1.855l1.307-.18.452-.092c1.991-.2 3.77-.3 5.274-.3h.298l1.523-.202.36-.2.444-1.203a1.703 1.703 0 0 0-.267-1.532l-.092-.111-.905-.694a5.644 5.644 0 0 1-.027-.651l.232-11.787-.217-7.51a32.61 32.61 0 0 0-.672-5.587l-.271-1.414-.27-.272-.387-.383-.294-.084a5.54 5.54 0 0 0-1.62-.15z"/><path d="M66.226 11.645h-.224c-.046 0-4.748 0-5.819.51l-.618.287-.062.605-.105.981c0 1.506 1.137 1.629 1.346 1.636l.127.05c.074.027.287.107.345 1.188.143 2.452.158 4.981.174 7.414l.058 4.292.046 2.015v2.012l.03 2.61c.055 3.831-.413 4.816-.815 4.98l-.387.142-.274.437-.329 1.039v.306c0 1.468 1.013 1.859 1.609 1.859l1.31-.184.449-.092c1.995-.2 3.77-.3 5.273-.303h.298l1.45-.234.437-.172.44-1.196a1.702 1.702 0 0 0-.27-1.532l-.085-.108-.9-.69a4.837 4.837 0 0 1-.028-.65l.278-11.799-.235-7.506a32.581 32.581 0 0 0-.677-5.583l-.247-1.425-.271-.276-.387-.383-.29-.089a5.46 5.46 0 0 0-1.647-.141z"/><path d="m78.684 22.27-.487.023a8.806 8.806 0 0 0-3.963 1.314c-1.303.72-3.19 2.625-3.185 4.533 0 1.008.862 2.161 1.69 2.683-.525.351-1.026.735-1.501 1.15a9.118 9.118 0 0 0-1.137 1.363 8.236 8.236 0 0 0-1.16 4.043c0 1.532.7 3.713 2.227 4.923a6.865 6.865 0 0 0 4.474 1.617c.533 0 2.378-.08 3.584-1.149.272-.216.53-.449.773-.697.13.17.276.326.437.467l.278.291c.039.035-.054-.08-.054-.08l.163.2.301.21a4.383 4.383 0 0 0 2.003.563c.65.039 1.3-.063 1.907-.299a4.492 4.492 0 0 0 1.603-1.065l.07-.065.182-.257.193-.249.108-.126c.254-.341.427-.734.507-1.15l.07-.249a1.542 1.542 0 0 0-.2-1.399 1.565 1.565 0 0 0-1.258-.663h-.043l-.046-.942-.073-2.2.042-1.203V32.74l-.073-1.58-.062-1.356c0-1.276-.143-2.226-.426-2.828l-.07-.13-.498-1.084a7.01 7.01 0 0 0-2.706-2.77 10.052 10.052 0 0 0-3.093-.74zm-5.223 5.805c0-.337.348-.885.812-1.402.023.076.193.578.193.578l.329.326c.183.132.318.319.387.533-.027.076-.07.176-.07.176l-.104.276a2.128 2.128 0 0 1-.352.257 2.917 2.917 0 0 1-.673-.046 1.718 1.718 0 0 1-.522-.698zm5.595-1.15.03.093v.134c.05.092.081.192.093.295v.766l-.046.383v.05c-.254.07-.512.126-.773.165h-.054l-.113.023-.773.165c.122-.282.187-.583.194-.89 0-.19-.028-.38-.086-.563a3.658 3.658 0 0 0-.429-.977 7.42 7.42 0 0 1 .774-.544 1.629 1.629 0 0 1 1.183.885zm1.523-2.019c.193.046.383.103.568.173a4.614 4.614 0 0 1 1.76 1.877l.193.422.305.647a5.76 5.76 0 0 1 .197 1.82l.136 2.94v.34l.02.928v-.127l-.047 1.18.08 2.319.059 1.187c0-.042.027.407.027.407v.207s.023 1.15.847 1.555l-.314-.226c.11.099.23.186.356.26a2.142 2.142 0 0 1-1.666.545 2.065 2.065 0 0 1-.773-.25.95.95 0 0 0-.082-.084s.047.062.054.077L82.216 41l-.271-.238.073.054a3.001 3.001 0 0 1-.502-.897l-.182-.728-1.01-.234.476.104-1.33-.322-.235.59-.36.421a10.55 10.55 0 0 1-1.202 1.261 3.628 3.628 0 0 1-2.03.537c-1.137 0-1.89-.28-2.981-1.112-.72-.567-1.295-1.915-1.295-3.03.04-.943.305-1.862.773-2.683.226-.345.485-.668.773-.965 1.991-1.748 3.027-1.97 5.8-2.564.653-.08 1.898-.314 2.385-.92a2.52 2.52 0 0 0 .48-1.685l.046-.384v-.774a6.133 6.133 0 0 0-.228-1.23 3.498 3.498 0 0 0-.816-1.295z"/><path d="m77.226 30.447-.216.096-.178.08c-.672.42-1.25.971-1.697 1.621l-.155.276-.14.433a4.839 4.839 0 0 0-.3 1.667v1.096c.04.858.346 1.684.877 2.364l.17.337.32.18c.384.232.8.406 1.234.517l.143.035h.387c2.32 0 2.78-.996 3.286-2.636l.124-.383c.167-.9.273-1.81.317-2.725l.039-1.15.05-.11v-.595c0-.988-.862-1.682-2.096-1.682a5.936 5.936 0 0 0-2.165.579zm.97 2.2c.148-.062.5-.211.805-.303 0 .383-.039 1.05-.039 1.05 0 .268-.158 1.762-.228 2.065-.023.084-.108.352-.108.352-.081.311-.191.614-.329.905a5.46 5.46 0 0 1-.642.034 2.028 2.028 0 0 1-.36-.153.298.298 0 0 1-.034-.035 1.955 1.955 0 0 1-.286-.842v-1.096c0-.314.062-.626.182-.916l.104-.291c.242-.286.525-.535.839-.74zM91.77 22.96l-1.275.644c-3.34 2.1-5.026 5.2-5.026 9.215 0 1.617.638 3.494 1.013 4.464.84 1.97 2.247 3.65 4.046 4.83 1.8 1.18 3.91 1.807 6.068 1.803 1.894 0 5.799-1.035 6.669-3.526l.221-.624-.464-.563a2.796 2.796 0 0 0-1.612-1.008l-.577-.085-.521.483c-.584.544-.867.793-1.315.885-1.16.265-2.208.315-3.812-1.636-.039-.053-.26-.383-.553-1.732a13.343 13.343 0 0 1-.251-2.448 7.484 7.484 0 0 1 .123-1.41l.441-2.3c.228-.8.57-1.565 1.013-2.272a4.18 4.18 0 0 1 .704-.946c-.108.32-.16.655-.151.992 0 1.353.537 1.94 1.117 2.368l.085.066.031.026c.85.767 1.643.932 2.707.928 2.072 0 3.479-1.345 3.479-3.35a4.537 4.537 0 0 0-1.117-2.65l.151.198c-1.106-1.843-4.102-3.214-6.043-3.214-1.713.003-3.526.126-5.15.862z"/><path d="M112.168 22.48c-6.275.058-11.008 4.74-11.004 10.898 0 5.955 4.562 10.618 10.373 10.614a8.901 8.901 0 0 0 3.587-.867 8.828 8.828 0 0 0 2.917-2.244l.278-.334v-.433a2.266 2.266 0 0 0-.421-1.148 2.293 2.293 0 0 0-.959-.767l-.518-.207-.433.226-1.114.578c-.708.383-1.098.61-1.933.59a.779.779 0 0 1-.553-.18l-.387-.241c-1.136-.606-1.194-3.79-1.229-5.698 0 0-.019-.483-.023-.548a30.4 30.4 0 0 1 2.424-.291c1.774-.161 3.611-.326 5.208-1.058 0 0 1.055-.996 1.055-1.57-.243-4.315-3.29-7.373-7.268-7.32zm-8.584 10.894c0-4.797 3.7-8.43 8.611-8.49 2.513-.035 4.384 1.785 4.736 4.47-1.297.4-2.641.635-3.998.698-1.11.075-2.214.22-3.306.437-.897.241-1.33.943-1.33 2.088.003.208.016.415.039.621v-.111.241c.046 2.744.112 6.514 2.494 7.76l.212.134c.206.137.425.254.654.348l-.159.023c-4.438 0-7.949-3.605-7.953-8.219z"/><path d="M111.644 24.07c-2.32.265-3.093 4.538-3.093 5.664l.529 1.177.549.406.461-.039a22.21 22.21 0 0 0 3.417-.559l.457-.115.479-.716.05-.219a9.207 9.207 0 0 0 .205-2.054 4.657 4.657 0 0 0-1.415-3.015 2.034 2.034 0 0 0-1.639-.53zm.243 2.595c.192.294.323.622.387.966 0 .302-.017.604-.05.904-.387.077-.731.142-1.106.2a6.537 6.537 0 0 1 .769-2.07zM129.904 17.297l-.034.026-1.052.863c-1.113.904-1.678 2.299-1.674 4.169a9.769 9.769 0 0 0 .951 3.923l-.1.062-1.276.866c-.098.06-.186.134-.263.218-2.61 1.418-3.739 4.786-4.025 5.797v.035l-.12.532-.139 1.414a8.493 8.493 0 0 0 1.102 4.172 8.595 8.595 0 0 0 3.015 3.109l-.065-.077a8.259 8.259 0 0 0 5.08 1.613c1.972 0 3.534-.824 4.949-1.793 1.16 1.012 2.482 1.916 4.473 1.916 1.744 0 2.935-.552 4.195-1.15l.194-.088 1.546-1.172-.274-.809a5.37 5.37 0 0 0-.87-1.38l-.491-.609-.774.2c-1.16.306-1.492-.046-2.447-1.682 0 0-.236-.36-.468-.725a17.624 17.624 0 0 0 2.173-4.54c0 .042.441-1.859.441-1.859.193-.942.595-2.912.978-3.291l.089-.058a1.738 1.738 0 0 0 .924-1.487 3.128 3.128 0 0 0-.387-1.605l-.352-.601h-.966c-.17 0-3.805.544-5.278 1.371.524-.806.793-1.75.774-2.709l-.058-.632-.054-.502-.105-.326-.031-.053a6.043 6.043 0 0 0-2.201-3.058 6.138 6.138 0 0 0-3.598-1.18 5.967 5.967 0 0 0-3.782 1.1zm3.797 1.302c.798 0 1.574.26 2.209.738a3.625 3.625 0 0 1 1.31 1.91l.034.123.024.287.034.288c0 1.26-.607 1.82-1.863 2.87l-1.423 1.24.282.767c.847 2.652 1.906 5.951 3.48 8.354 0 0 .827 1.249.885 1.34l-.154.303.421.652.773 1.188c.573.977 1.354 2.28 2.749 2.766a5.066 5.066 0 0 1-1.736.307c-1.221 0-1.987-.544-3.124-1.533v-1.916l-1.933 1.43c-1.419 1.045-2.726 1.915-4.361 1.915a5.836 5.836 0 0 1-3.588-1.1l-.05-.042-.105-.03a6.232 6.232 0 0 1-2.175-2.252 6.162 6.162 0 0 1-.794-3.017l.077-.862s.082-.383.105-.475c.441-1.56 1.465-3.633 2.915-4.372.229-.143.448-.3.657-.472l.909-.601 2.165-1.376-.704-.973a7.554 7.554 0 0 1-1.16-3.698c0-1.107.267-1.889.793-2.299l.967-.797c.808-.567 1.391-.663 2.393-.663zm3.314 8.047c.386-.31.773-.644 1.132-1.008.031.146.213.962.213.962l.155.245.12.196.572.693.495.265.205.115a10.548 10.548 0 0 1-1.067 4.011 42.521 42.521 0 0 1-1.976-5.303z"/><path d="M131.069 28.251c-2.367.092-3.948 5.303-3.948 6.376 0 3.089 1.752 6.415 5.595 6.415 1.492 0 2.78-.978 3.267-1.391l.723-.625-.387-.713-.611-1.214a12.004 12.004 0 0 1-1.253-2.637l-.046-.137-.077-.123c-.584-.92-1.284-2.985-1.663-4.096-.386-1.18-.475-1.399-.862-1.652l-.352-.214zm-1.528 6.372c0-.49.542-1.915 1.087-2.95a22.058 22.058 0 0 0 1.546 3.644 14.574 14.574 0 0 0 1.435 3.016 2.107 2.107 0 0 1-.905.287c-2.327.02-3.155-2.142-3.159-3.997zM132.023 21.458c.005.66.146 1.311.414 1.915l.05.092.569 1.322.294.284.858.636.746-.487c1.16-.766 2.502-1.62 2.498-3.831a2.827 2.827 0 0 0-.793-1.99 2.876 2.876 0 0 0-1.968-.877c-1.651 0-2.668 1.533-2.668 2.936zm2.421 0c0-.261.162-.552.251-.552.155 0 .336.245.336.463a1.354 1.354 0 0 1-.386 1.046.919.919 0 0 0-.062-.145l.05.103a2.464 2.464 0 0 1-.189-.915zM165.324 4.115c-5.173 1.345-6.445 2.395-9.685 5.526-1.844 1.831-4.682 6.962-4.956 12.196v.268a26.07 26.07 0 0 0-.089 2.127c0 4.318 1.113 8.526 3.046 11.357.035.046.314.48.314.48l.429.658c2.227 3.311 4.659 5.388 7.4 6.288l.089.023.127.065.294.088.112.073c1.933.717 3.724.767 5.692.767l.351-.031h.163-.074a5.446 5.446 0 0 0 1.817-.383l.507-.173-.135.031a4.746 4.746 0 0 0 1.314-.418l.611-.191.05-.03.151-.058.387-.157.773-.384.097-.057.448-.345a8.968 8.968 0 0 0 1.547-1.188l.437-.383 1.194-1.176c.039-.05.619-.874.619-.874.438-.678.825-1.386 1.16-2.119l.151-.295.22-.44s.421-1.081.487-1.238a8.63 8.63 0 0 0 .65-2.257l.305-1.077.081-.383.058-.322.178-1.322.039-.21v-.12c0-.05.193-.712.193-.712s.162-.295.201-.383l.105-.077.282-.195.077-.023h.437l.387-.295a1.272 1.272 0 0 0 .56-1.035v-.042c0-.061.031-.134.035-.15l.058-.528v-1.732a1.442 1.442 0 0 0-.843-1.23l-.182-.088-.324-.039h-.085l-.31-.03-.305-.05h-.023l-.167-.023-.386-.046-1.226-.104-3.178-.126-.495-.038c-1.593-.115-3.093-.226-4.775-.223h-.065c-1.338-.222-1.698.077-1.698.077l-.158.556-.19.766a1.24 1.24 0 0 0 .035-.134v.073l-.046.31v-.13l-.054.272-.093 1.532v-.06l.065.41v-.192c.004.296.104.583.285.82.181.235.434.407.721.49l.228.092.367.057.066.027.359.177h.062c.211.12.395.282.542.475l-.031-.085.263.53c.201.634.283 1.3.243 1.965V30.646l-.035.345v1.314l-.042.219v.145l-.031.123-.147 1.257-.186 1.203-.131.487-.077.272a4.464 4.464 0 0 1-1.868 2.709.521.521 0 0 0-.1.034l-.835.349a.778.778 0 0 1-.275.134h-.054c-.878.127-1.16-.019-1.226-.054l-.096-.05-.348-.199c-1.497-1.203-2.32-2.601-2.773-4.67l.02.11-.282-1.199-.024-.076c0 .038-.038-.238-.038-.238v-.192l-.31-1.789a42.208 42.208 0 0 1-.653-4.71c0 .066-.035-.221-.043-.279 0-2.809.047-5.548.588-8.261l.039-.134.139-.533c0-.065.085-.44.085-.44l.174-.836c.356-1.314 1.299-4.797 4.098-6.223a5.53 5.53 0 0 1 2.189-.524 2.57 2.57 0 0 1 1.546.697l.066.05c.67.709 1.251 1.495 1.732 2.34.417.852.66 1.777.715 2.721v.384a1.272 1.272 0 0 0 .216 1.033c.159.236.394.413.666.503a4.31 4.31 0 0 0 1.368.192l.534.027.244-.039h.065l-.069.012h.201l.587-.307.194-.073.096-.095.387-1.066v-.452l.162-1.533.058-.272.047-.13.472-2.138.533-2.345.12-.479.197-.56.039-.13a1.361 1.361 0 0 0-.29-.862l.042.023a1.898 1.898 0 0 0-.15-.172.646.646 0 0 1-.055-.062 5.841 5.841 0 0 0-1.159-.728 2.54 2.54 0 0 0-1.191-.314h-.387l-.151.123-.452.314-.309.743s-.085-.088-.101-.069a2.89 2.89 0 0 0-.669-.505l-.073-.035c-.862-.893-3.341-1.839-4.539-1.874l-1.284-.13a12.6 12.6 0 0 0-4.462.383z"/><path d="m182.955 23.91-.44.169-.209.414a2.91 2.91 0 0 0-.302 1.195c-.019.4.099.794.335 1.119.236.325.576.561.964.67-.039.362-.103.72-.193 1.073l-.259 1.41a58.85 58.85 0 0 0-.576 8.43l.023.502v.464c.004.107-.009.215-.039.318l-.239.057c-.511.115-1.879.418-1.879 2.253 0 .384 0 1.227.773 1.602l.236.115.955.035 4.392.149h2.656c.639.04 1.28-.038 1.891-.23l.409-.176.198-.383c.174-.359.263-.752.259-1.15a2.246 2.246 0 0 0-.534-1.448l-.193-.242-.182-.069-.75-.306-.093-.03a11.29 11.29 0 0 1-.154-2.02c0-4.035.417-6.33.873-7.664a3.32 3.32 0 0 0 1.275 1.368c.549.325 1.18.487 1.818.468a3.493 3.493 0 0 0 2.459-.982 3.432 3.432 0 0 0 1.048-2.413c0-2.437-1.647-4.139-4.001-4.135a4.913 4.913 0 0 0-1.934.433c0-.076.124-.973.124-.973a.644.644 0 0 0-.232-.383c-.22-.188-.951-.146-.951-.146l-2.03-.05c-.066-.007-4.098.02-5.498.556z"/><path d="M204.417 23.86a9.497 9.497 0 0 0-4.805 1.341 9.387 9.387 0 0 0-3.442 3.583 12.613 12.613 0 0 0-1.338 4.694c0 5.088 3.329 10.491 9.488 10.487 5.761 0 10.099-4.027 10.095-9.357a11.477 11.477 0 0 0-3.348-8.085 9.085 9.085 0 0 0-3.048-2.01 9.144 9.144 0 0 0-3.602-.653zm-7.165 9.622c.134-1.238.49-2.443 1.052-3.556a6.949 6.949 0 0 1 2.565-2.678 7.033 7.033 0 0 1 3.59-.99 6.792 6.792 0 0 1 2.66.49c.844.34 1.609.846 2.25 1.488a9.02 9.02 0 0 1 2.622 6.372c0 4.514-3.952 6.955-7.671 6.955-4.585.007-7.064-4.161-7.068-8.081z"/><path d="M200.133 32.424c0 1.042.131 10.189 4.45 10.185 1.933 0 4.214-1.56 4.21-8.963 0-5.828-1.395-8.782-4.137-8.778-3.58 0-4.523 4.943-4.523 7.556zm2.424 0c0-2.107.746-5.157 2.099-5.157.824 0 1.713 1.996 1.717 6.38 0 4.306-.901 6.56-1.79 6.56-.986.003-2.022-4-2.026-7.783zM220.836 23.68c-.132-.283-.058-.16-.286-.62-.229-.46-1.122-.441-1.122-.441a25.518 25.518 0 0 0-4.461.506l-.178.038c-.561.126-2.057.456-2.057 2.107v1.008l.352.276.773.62a24.67 24.67 0 0 0-.224 2.963v.176l-.027.383-.054.483-.078.835.089 4.345c0 .073.089.924.089.924l.089 1.042.05.766.043.54s0 .089.027.196l-.306.061-.224.085-.502.207-.287.383a2.487 2.487 0 0 0-.433 1.314l.089.847.058.345.576.862h.518l.596.02.158.076 3.418-.05.476-.027.278-.02h.17c.932.041 1.865.008 2.792-.099a4.23 4.23 0 0 0 .649-.096c.267-.102.499-.276.672-.502.173-.226.279-.495.306-.777l.039-.115v-.652s0-.05-.027-.08v-.023s-.128-.556-.201-.858l.348.13.46.257.541.08a6.712 6.712 0 0 1 1.222-.084h.093l.085-.046.974-.046.851-.065c.222-.04.448-.054.673-.039l.158-.034H230.173a7.4 7.4 0 0 0 1.109-.058l-.081.173v.383c0 .1.023 2.468 1.57 2.468h.189c.286-.039 2.359-.203 2.641-.203l.414-.035H236.22l.421-.05h-.112l.847-.084.386-.046.387-.03h.151l.429-.047h.321l.247-.046.514-.072a3.439 3.439 0 0 0 1.829-.564l.456-.34.028-.568c0-.054.042-.444.042-.444 0-.188 0-.41-.027-.767a1.872 1.872 0 0 0-.209-.597l-.607-.31s-.657-.23-.661-.238h.019-.027l-.069-.13v-.142l.058-.598.127-4.514v-1.69c0-2.253-.162-5.08-1.446-6.748a2.99 2.99 0 0 0-.626-.766 6.31 6.31 0 0 0-4.203-1.686 5.365 5.365 0 0 0-2.125.342 5.323 5.323 0 0 0-1.814 1.149l-.124.138c-.495-1.035-1.315-2.089-2.247-2.552a6.049 6.049 0 0 0-2.663-.652 6.42 6.42 0 0 0-2.569.572 6.371 6.371 0 0 0-2.117 1.551zm2.706 4.004s.058 0 .081.027l.043.027.243.096.213.36c0 .042.085.575.085.575l.07.494c0 .16-.039 1.533-.039 1.533a79.774 79.774 0 0 0-.217 5.747v.717l-.158.084c-.483.234-1.481.724-1.477 1.916 0 0 .139 1.061.166 1.25a2.26 2.26 0 0 0-.97-.69l-.132-.058-.185-.142a1.519 1.519 0 0 1-.182-.598v-.118l-.042-.43s-.039-.24-.074-.475v-1.107l-.027-.61a32.51 32.51 0 0 1 .298-4.1l.073-.325s.139-.874.147-.935l.132-.406s.073-.364.073-.383c0-.02.418-1.012.418-1.012l.042-.065c.338-.46.727-.88 1.16-1.253zm9.101 1.606c.156.673.24 1.36.252 2.05v.322l.042.345-.042 2.54v.766l-.039 1.25-.05 1.149s-.031.433-.039.487l-.131-.058-.271-.207-.17-.337-.483-.264a1.66 1.66 0 0 1-.198-.12.52.52 0 0 1-.034-.145l-.066-.467a5.177 5.177 0 0 1-.089-1.062c0-.383 0-.812.042-1.184v-.49l.225-1.694.112-.663.089-.479v.077c.233-.628.518-1.236.854-1.816zM244.259 15.028a4.96 4.96 0 0 0-2.072.682 6.84 6.84 0 0 0-1.898 2.012 3.202 3.202 0 0 0-.429 1.64 6.08 6.08 0 0 0 .506 2.184c.468 1 1.26 1.816 2.25 2.318h.066c.964.38 2.01.512 3.039.383a4.942 4.942 0 0 0 2.606-1.394c.731-.725.905-1.085 1.249-2.548.56-2.085-1.28-4.04-1.655-4.41l-.039-.04c-1.322-1.145-3.255-.888-3.623-.827z"/><path d="m241.72 24.596-.494.322v.352l-.093 1.15v.233l.038.357.02.33.189.329a1.886 1.886 0 0 0 1.574.785c.448 1.817.657 5.265.661 8.104l-.116 2.372-.278.096a3.012 3.012 0 0 0-1.373.717c-.619.613-.619 1.475-.619 1.988l.329 1.08.244.273c.916.682 7.257.847 7.319.847 2.435 0 3.174-.801 3.174-.801l.251-1.058a.687.687 0 0 1 0-.11v-.415a3.97 3.97 0 0 0-.209-1.375v-.077a1.652 1.652 0 0 0-1.206-1.015 1.417 1.417 0 0 1-.062-.295l.166-2.568.151-2.881c0-1.464-.328-7.039-1.032-8.706l.054.154s-.232-1.269-1.009-1.533l-.139-.042h-.433l-.433-.027c-1.404-.012-5.034.349-6.674 1.414z"/><path d="m256.546 15.377-.827.272-1.09 3.03-.29.982s-.085.28-.174.551h-.387a8.527 8.527 0 0 0-1.894.043l-.422.072-.286.315a3.883 3.883 0 0 0-.796 2.433v.165c0 .053.201.766.201.766l.471.701.689-.038c.365-.014.73-.005 1.094.027-.75 2.728-1.524 5.931-1.524 9.092 0 5.074 2.49 10.185 8.031 10.181 3.727 0 6.793-3.065 7.899-6.054l.286-.766-.665-.567a4.336 4.336 0 0 0-1.438-.9l-.897-.3-.507.793a2.197 2.197 0 0 1-.787.77c-.324.186-.69.288-1.065.296-.986 0-1.376-.25-1.686-.656-.611-.85-.734-1.85-.734-3.402 0-1.744.417-3.633.819-5.46l.12-.552.023-.1a8.24 8.24 0 0 1 .654-2.1l1.817-.072.534.034c.545.046 1.291.111 1.894-.437a2.284 2.284 0 0 0 .634-1.762V22.408c0-.506-.066-1.184-.622-1.598l-.279-.207-2.981-.245c.047-.165.101-.345.143-.494.267-.74.422-1.515.461-2.3v-1.367l-.894-.238a14.46 14.46 0 0 0-2.849-.383 13.059 13.059 0 0 1-2.018-.234l-.329-.076z"/><path fill="#b82233" d="M6.287.02 5.2.041C1.523.107 1.052.17.58.636a2.253 2.253 0 0 0-.553 1.855 1.735 1.735 0 0 0 .955 1.302l.87.272.282.073c.039.349.151 1.403.151 1.403l.344 3.448c.282 2.705.646 4.598.998 6.45l.123.654.271 1.445.63 3.065c0-.03.252 1.43.252 1.43l.413 2.16.468 2.3.55 2.682.386 1.632c.328 1.403.638 2.725 1.237 4.572l.549 1.678 1.067 3.065.387 1.061a2.422 2.422 0 0 0 1.133 1.602l.038.023.035.023c1.125.655 3.866.49 4.64-.513.328-.383.657-1.33 2.339-7.756l.526-1.958.506-2.05c.023-.092.058-.226.081-.337 0 .13.047.28.066.383l.356 2.012c.417 1.916 1.465 5.748 1.883 7.142l.386 1.318c.122.659.377 1.286.75 1.844a2.202 2.202 0 0 0 1.991.904h.364l.387.05a2.431 2.431 0 0 0 1.747-.242c.592-.352.87-.517 3.951-11.273l.12-.414.715-2.467 2.707-9.196 1.574-5.273.722-2.452.774-2.476.897-3c.083-.26.204-.507.36-.732 1.055-.41 1.7-.935 1.878-1.582v.065l.039-.073a1.561 1.561 0 0 0 .062-1.533c-.418-.743-1.319-.87-2.13-.93l-2.997-.15-1.813-.07c-1.067-.022-1.976 0-2.51.68-.22.267-.337.604-.332.95.008.242.046.483.112.716V4.644c.097.302.277.57.522.774.244.203.542.334.859.376l.034.072-.158.514c0-.061-.387 1.253-.387 1.253l-1.31 4.709-.658 2.46c-.591 2.242-1.84 6.978-2.768 10.135l-.104-.498-.495-2.3c-.433-1.842-.658-3.448-.897-5.13l-.422-2.809a13.068 13.068 0 0 1-.162-1.916 3.038 3.038 0 0 1 .17-1.252c.374-.182.69-.463.915-.81.224-.349.348-.75.357-1.164a2.093 2.093 0 0 0 0-.218 1.724 1.724 0 0 0-.612-1.132 1.754 1.754 0 0 0-1.232-.4c-.862 0-3.866.267-6.724.524l-.673.061h-.084a2.043 2.043 0 0 0-1.454.767 1.774 1.774 0 0 0-.31 1.034c.001.162.018.324.05.483.106.59.434 1.117.917 1.475l.073.058.066 1.46c.178 1.088.41 2.97.491 3.701a44.543 44.543 0 0 0-1.964 4.97c-.097.272-.2.57-.31.87a60.68 60.68 0 0 1-.633-3.602c-.248-1.46-1.245-8.514-1.373-10.143l-.104-1.172c-.074-.809-.201-2.161-.201-2.916v-.142c.166-.084.324-.172.324-.172a2.132 2.132 0 0 0 1.118-.843c.438-.438.695-1.021.723-1.637a1.799 1.799 0 0 0-.15-.712C14.212.188 12.65.188 12.136.188L9.62.092A32.38 32.38 0 0 0 6.287.019Z"/><path fill="#b82233" d="m40.056 21.232-.491.027a8.815 8.815 0 0 0-3.963 1.31c-1.303.724-3.19 2.629-3.19 4.533 0 1.008.866 2.161 1.69 2.682a15.44 15.44 0 0 0-1.497 1.15c-.423.42-.802.88-1.133 1.375a8.214 8.214 0 0 0-1.16 4.043c0 1.532.7 3.713 2.227 4.92a6.916 6.916 0 0 0 4.474 1.617c.533 0 2.378-.08 3.584-1.15.272-.22.53-.455.773-.705.128.173.274.331.437.471l.278.296c.04.03-.054-.081-.054-.081l.163.195.305.215a4.399 4.399 0 0 0 1.999.56c.65.038 1.3-.063 1.906-.298a4.494 4.494 0 0 0 1.605-1.063l.07-.069.18-.257.194-.252.108-.123c.253-.342.426-.734.507-1.15l.07-.249a1.543 1.543 0 0 0-.2-1.4 1.565 1.565 0 0 0-1.262-.661h-.039l-.046-.947-.077-2.191.046-1.211v-1.111l-.07-1.583-.061-1.356c0-1.272-.143-2.226-.426-2.824l-.073-.134-.538-1.054a6.966 6.966 0 0 0-2.706-2.809 10.005 10.005 0 0 0-3.093-.743zm-5.224 5.809c0-.341.348-.89.808-1.407l.201.579.325.322c.182.136.317.325.387.54l-.066.172s-.058.142-.108.28c-.11.096-.227.182-.352.257a3.42 3.42 0 0 1-.673-.046 1.746 1.746 0 0 1-.522-.697zm5.595-1.15.027.092v.134c.048.094.08.195.093.299v.743l-.047.384v.053a9.348 9.348 0 0 1-.773.165h-.054l-.112.023-.774.165c.122-.281.188-.583.194-.89 0-.19-.028-.38-.085-.563a3.659 3.659 0 0 0-.43-.977c.247-.196.505-.378.774-.544a1.651 1.651 0 0 1 1.187.897zm1.523-2.004c.194.04.384.095.568.165a4.614 4.614 0 0 1 1.76 1.877l.193.426.387.766-.07-.13a5.74 5.74 0 0 1 .197 1.82l.135 2.935v1.272-.13l-.042 1.18.081 2.299.054 1.192c0-.042.031.406.031.406v.21s.023 1.15.847 1.533l-.313-.222c.108.096.226.181.352.253a2.073 2.073 0 0 1-2.444.299l-.081-.088a.398.398 0 0 0 .054.076l-.085-.103-.275-.238.078.054a2.936 2.936 0 0 1-.503-.9l-.182-.725-1.005-.233.472.103-1.33-.318-.236.613-.363.422a10.49 10.49 0 0 1-1.199 1.256 3.66 3.66 0 0 1-2.03.537c-1.137 0-1.89-.28-2.98-1.107-.72-.571-1.296-1.916-1.296-3.035a5.96 5.96 0 0 1 .773-2.682c.228-.347.487-.673.774-.974 1.99-1.743 3.027-1.965 5.8-2.555.649-.081 1.897-.319 2.385-.924a2.535 2.535 0 0 0 .479-1.686l.046-.383v-.766a6.08 6.08 0 0 0-.228-1.227 3.398 3.398 0 0 0-.804-1.287z"/><path fill="#b82233" d="m38.601 29.413-.216.092-.178.084a5.775 5.775 0 0 0-1.697 1.617l-.159.276-.135.437a4.858 4.858 0 0 0-.302 1.666v1.096c.041.859.348 1.684.878 2.364l.17.341.32.177c.383.233.799.407 1.234.517l.143.038h.387c2.32 0 2.78-.996 3.282-2.636l.128-.383c.169-.901.275-1.813.317-2.728l.039-1.15.05-.11v-.599c0-.988-.862-1.682-2.096-1.678a5.791 5.791 0 0 0-2.165.579zm.97 2.199c.262-.117.53-.218.805-.303 0 .383-.039 1.05-.039 1.05 0 .265-.158 1.759-.228 2.062l-.108.356c-.081.31-.191.611-.329.9 0 0-.166.035-.642.039a2.388 2.388 0 0 1-.36-.157.29.29 0 0 1-.034-.035 1.906 1.906 0 0 1-.286-.843v-1.096a2.51 2.51 0 0 1 .178-.92l.112-.294c.244-.285.528-.534.843-.74zM54.762 10.587h-.225c-.046 0-4.751 0-5.8.51l-.622.287-.058.602-.116.992c0 1.502 1.133 1.625 1.342 1.636.062 0 .124.046.124.046.077.027.286.107.352 1.188.139 2.448.154 4.981.174 7.414l.054 4.288.046 2.02.02 2.011.03 2.61c.055 3.831-.41 4.82-.812 4.98l-.386.143-.275.433-.328 1.042v.295c0 1.467 1.013 1.858 1.612 1.854l1.307-.183.448-.089c1.995-.199 3.77-.298 5.274-.302h.298l1.523-.203.363-.203.441-1.2a1.691 1.691 0 0 0-.267-1.532l-.089-.112-.904-.693c0-.104-.024-.272-.027-.648l.259-11.79-.229-7.495a32.188 32.188 0 0 0-.684-5.583l-.263-1.41-.27-.272-.387-.383-.29-.088a5.55 5.55 0 0 0-1.635-.165Z"/><path fill="#b82233" d="M65.566 10.58h-.224c-.047 0-4.752 0-5.819.509l-.622.283-.058.606-.105.989c0 1.502 1.133 1.624 1.346 1.632l.12.05c.08.027.29.107.351 1.188.14 2.448.159 4.98.174 7.414l.055 4.291.042 2.016.027 2.012.031 2.605c.05 3.832-.414 4.82-.816 4.982l-.386.141-.279.433-.328 1.043v.295c0 1.467 1.013 1.854 1.608 1.858l1.307-.188.448-.088c1.995-.195 3.774-.303 5.274-.303h.298l1.453-.226.433-.176.445-1.2a1.695 1.695 0 0 0-.27-1.532l-.09-.13-.9-.698a4.715 4.715 0 0 1-.027-.647l.259-11.79-.228-7.495a32.566 32.566 0 0 0-.673-5.583l-.255-1.433-.275-.276-.387-.383-.29-.089a5.42 5.42 0 0 0-1.639-.11Z"/><path fill="#b82233" d="m78.024 21.205-.49.023a8.822 8.822 0 0 0-3.968 1.314c-1.299.72-3.19 2.629-3.185 4.533 0 1.008.866 2.161 1.69 2.682-.523.354-1.024.738-1.5 1.15a9.19 9.19 0 0 0-1.134 1.375 8.234 8.234 0 0 0-1.16 4.043c0 1.533.696 3.713 2.223 4.924a6.908 6.908 0 0 0 4.478 1.617c.533 0 2.374-.085 3.58-1.15.272-.22.53-.455.773-.705.128.172.274.328.437.468l.278.295c.043.034-.054-.08-.054-.08l.163.198.305.211a4.46 4.46 0 0 0 2.003.563 4.538 4.538 0 0 0 1.904-.3 4.503 4.503 0 0 0 1.603-1.064l.07-.069.18-.233.19-.25.112-.126a2.95 2.95 0 0 0 .507-1.15l.07-.245a1.551 1.551 0 0 0-.21-1.403 1.574 1.574 0 0 0-1.267-.658h-.047c0-.383-.042-.943-.042-.943l-.078-2.195.043-1.207v-1.115l-.05-1.583-.066-1.353a7.148 7.148 0 0 0-.422-2.827l-.073-.13-.499-1.089a6.968 6.968 0 0 0-2.706-2.805 9.823 9.823 0 0 0-3.093-.743zm-5.227 5.805c0-.341.348-.885.812-1.403l.197.58.325.32c.18.139.315.327.387.541l-.07.173s-.054.138-.104.275c-.111.094-.229.18-.352.257a3.384 3.384 0 0 1-.673-.046 1.694 1.694 0 0 1-.522-.697zm5.595-1.15.03.092v.104c.05.092.083.192.097.295v.766l-.05.383v.054a7.543 7.543 0 0 1-.773.165h-.054l-.113.027c-.266.053-.514.107-.773.164.12-.281.185-.583.19-.889 0-.19-.028-.38-.082-.563a3.74 3.74 0 0 0-.433-.98c.248-.194.506-.375.774-.541a1.63 1.63 0 0 1 1.187.908zm1.527-2.008c.193.044.383.1.568.17a4.55 4.55 0 0 1 1.76 1.877l.189.425.305.644c.163.592.23 1.206.201 1.82l.132 2.939v1.272-.134l-.043 1.184.081 2.318.054 1.188c0-.042.028.406.028.406v.207s.023 1.15.846 1.552l-.313-.222c.109.098.228.184.356.256a2.127 2.127 0 0 1-1.663.544 1.946 1.946 0 0 1-.773-.249l-.085-.084.058.077-.089-.108-.27-.237.073.057a3.115 3.115 0 0 1-.503-.9l-.178-.724-1.005-.257.472.107-1.326-.322-.236.59-.364.422c-.364.45-.765.87-1.198 1.257a3.663 3.663 0 0 1-2.034.54c-1.136 0-1.89-.28-2.977-1.111-.719-.567-1.299-1.916-1.299-3.035.042-.942.307-1.86.773-2.682a6.48 6.48 0 0 1 .774-.966c1.987-1.75 3.027-1.97 5.8-2.563.653-.08 1.897-.318 2.388-.92a2.528 2.528 0 0 0 .476-1.686l.05-.383v-.755a6.043 6.043 0 0 0-.232-1.23 3.492 3.492 0 0 0-.796-1.299z"/><path fill="#b82233" d="m76.55 29.382-.216.092-.178.084c-.672.42-1.25.971-1.697 1.62l-.155.273-.135.437c-.2.535-.302 1.1-.302 1.67v1.092c.037.86.343 1.685.874 2.365l.17.34.321.18c.384.232.801.405 1.237.514l.143.038H77c2.32 0 2.776-.996 3.282-2.64l.124-.383c.169-.9.276-1.812.321-2.728l.035-1.15.042-.149v-.552c0-.992-.862-1.682-2.095-1.682-.75.053-1.483.25-2.158.579zm.97 2.2c.263-.116.532-.217.805-.304 0 .384-.039 1.047-.039 1.047 0 .272-.158 1.762-.224 2.069l-.112.352a4.883 4.883 0 0 1-.317.89c-.214.027-.43.041-.646.041a2.084 2.084 0 0 1-.36-.16l-.038-.031a1.953 1.953 0 0 1-.286-.847v-1.084c.002-.314.064-.625.182-.916l.104-.291c.246-.283.53-.532.843-.74zM91.107 21.895l-1.276.64c-3.344 2.1-5.026 5.203-5.026 9.219 0 1.62.634 3.49 1.013 4.46a10.878 10.878 0 0 0 4.044 4.831 11.024 11.024 0 0 0 6.066 1.805c1.895 0 5.8-1.034 6.673-3.525l.217-.628-.46-.56a2.83 2.83 0 0 0-1.616-1.011l-.576-.077-.518.48c-.588.547-.867.789-1.319.884-1.16.265-2.208.315-3.808-1.636-.043-.057-.26-.383-.553-1.732a13.388 13.388 0 0 1-.251-2.448 7.217 7.217 0 0 1 .12-1.414l.44-2.28c.23-.798.572-1.56 1.013-2.265.191-.353.43-.678.712-.965-.106.32-.157.655-.151.992 0 1.36.541 1.943 1.117 2.368l.089.065.027.027c.855.766 1.643.931 2.707.935 2.076 0 3.479-1.353 3.479-3.353a4.537 4.537 0 0 0-1.117-2.651l.151.199c-1.106-1.843-4.099-3.215-6.04-3.215-1.72-.007-3.537.1-5.157.855z"/><path fill="#b82233" d="M111.503 21.416c-6.275.057-11.011 4.74-11.007 10.897 0 5.95 4.562 10.618 10.377 10.61a8.902 8.902 0 0 0 3.585-.866 8.828 8.828 0 0 0 2.915-2.241l.278-.334v-.433c0-.927-.824-1.682-1.38-1.916l-.515-.203-.433.226-1.117.571c-.708.383-1.098.617-1.933.598a.777.777 0 0 1-.553-.184l-.387-.241c-1.136-.606-1.19-3.79-1.225-5.694l-.023-.552a30.335 30.335 0 0 1 2.42-.291c1.778-.157 3.611-.326 5.208-1.054 0 0 1.055-.996 1.055-1.575-.239-4.31-3.286-7.372-7.265-7.318zm-8.583 10.893c0-4.797 3.696-8.43 8.611-8.495 2.513-.034 4.384 1.79 4.728 4.476a16.021 16.021 0 0 1-3.99.693 25.934 25.934 0 0 0-3.31.44c-.893.242-1.33.94-1.326 2.09 0 .205.013.411.039.616v-.107.237c.046 2.744.116 6.514 2.498 7.763l.212.134c.207.138.425.256.654.353h-.163c-4.458.023-7.953-3.59-7.953-8.2z"/><path fill="#b82233" d="M110.984 22.99c-2.32.269-3.093 4.537-3.093 5.664l.529 1.18.538.437.46-.039a22.292 22.292 0 0 0 3.422-.559l.456-.115.471-.709.051-.222a9.54 9.54 0 0 0 .201-2.05 4.633 4.633 0 0 0-1.408-3.023 2.06 2.06 0 0 0-1.627-.563zm.239 2.598c.189.295.321.623.387.966 0 .3-.017.601-.05.9-.368.077-.731.15-1.11.203a6.5 6.5 0 0 1 .773-2.057zM129.256 16.231l-.035.027-1.055.862c-1.11.9-1.674 2.3-1.674 4.169a9.875 9.875 0 0 0 .951 3.924l-.097.057-1.287.859a1.29 1.29 0 0 0-.267.222c-2.61 1.418-3.739 4.782-4.021 5.793v.039l-.116.532-.139 1.422a8.484 8.484 0 0 0 1.101 4.172 8.584 8.584 0 0 0 3.016 3.108l-.065-.076a8.248 8.248 0 0 0 5.084 1.613c1.968 0 3.534-.82 4.945-1.79 1.179 1.012 2.482 1.916 4.473 1.916 1.744 0 2.935-.552 4.195-1.15l.193-.088 1.547-1.172-.271-.812a5.464 5.464 0 0 0-.87-1.38l-.495-.609-.773.203c-1.16.307-1.496-.046-2.451-1.682l-.464-.724a17.68 17.68 0 0 0 2.169-4.556c0 .042.441-1.859.441-1.859.193-.942.599-2.916.982-3.291l.085-.061a1.743 1.743 0 0 0 .928-1.483 3.214 3.214 0 0 0-.387-1.606l-.352-.586h-.966c-.174 0-3.809.544-5.282 1.372.524-.807.793-1.75.774-2.71l-.055-.631-.058-.502-.104-.326-.027-.054a6.065 6.065 0 0 0-2.202-3.057 6.156 6.156 0 0 0-3.598-1.185 5.93 5.93 0 0 0-3.773 1.1zm3.797 1.3a3.69 3.69 0 0 1 2.207.74 3.635 3.635 0 0 1 1.311 1.91l.031.123c0 .142.027.288.027.288l.031.287c0 1.26-.603 1.82-1.86 2.866l-1.442 1.238.282.766c.851 2.648 1.903 5.95 3.48 8.35 0 0 .827 1.249.885 1.34-.073.154-.15.307-.15.307l.417.652.773 1.187c.569.978 1.35 2.277 2.749 2.767-.556.2-1.143.304-1.736.307-1.221 0-1.991-.545-3.124-1.533V37.21l-1.933 1.422c-1.419 1.05-2.725 1.915-4.361 1.915a5.873 5.873 0 0 1-3.588-1.1l-.05-.038-.101-.038a6.228 6.228 0 0 1-2.179-2.251 6.168 6.168 0 0 1-.798-3.018l.082-.866s.077-.383.104-.47c.437-1.56 1.461-3.633 2.911-4.373a5.92 5.92 0 0 0 .661-.475l.905-.598 2.169-1.372-.696-.973a7.51 7.51 0 0 1-1.16-3.697c0-1.112.263-1.89.793-2.319l.966-.793c.793-.54 1.392-.636 2.394-.636zm3.309 8.046a13.16 13.16 0 0 0 1.133-1.016c.031.15.217.966.217.966l.15.249.12.192.572.693.495.264.205.115a10.607 10.607 0 0 1-1.063 4.012 41.975 41.975 0 0 1-2.01-5.318z"/><path fill="#b82233" d="M130.408 27.206c-2.366.091-3.947 5.303-3.947 6.376 0 3.092 1.755 6.414 5.594 6.41 1.493 0 2.784-.973 3.268-1.387l.723-.625-.387-.712-.638-1.25c-.521-.82-.939-1.7-1.245-2.62l-.046-.138-.082-.123c-.58-.92-1.283-2.985-1.658-4.096-.406-1.184-.476-1.395-.862-1.652l-.325-.214zm-1.546 6.376c0-.495.541-1.916 1.086-2.959a21.67 21.67 0 0 0 1.547 3.644c.36 1.058.841 2.07 1.434 3.02a2.09 2.09 0 0 1-.901.287c-2.312 0-3.147-2.16-3.147-4.012zM131.359 20.408c.009.65.148 1.292.41 1.889l.05.095.569 1.322.294.284.858.636.75-.494c1.16-.767 2.498-1.621 2.494-3.832a2.827 2.827 0 0 0-.791-1.988 2.877 2.877 0 0 0-1.966-.878c-1.651.011-2.671 1.548-2.668 2.966zm2.421 0c0-.26.158-.552.247-.556.155 0 .337.25.337.467a1.373 1.373 0 0 1-.368 1.047l-.062-.146.051.103a2.361 2.361 0 0 1-.213-.915zM164.661 3.065c-5.166 1.341-6.438 2.399-9.666 5.522-1.848 1.831-4.686 6.962-4.957 12.2v.268a24.33 24.33 0 0 0-.089 2.127c0 4.314 1.11 8.526 3.043 11.353.035.046.317.487.317.487l.425.659c2.227 3.307 4.663 5.364 7.404 6.284l.085.027.128.065s.151.038.294.084l.112.073c1.933.717 3.723.767 5.691.767l.352-.031h.162-.073a5.45 5.45 0 0 0 1.817-.406l.507-.169-.136.03a4.584 4.584 0 0 0 1.315-.417l.611-.191.054-.031.151-.061.386-.154.773-.383.093-.057.449-.35a8.606 8.606 0 0 0 1.546-1.183l.437-.383 1.191-1.177c.039-.05.619-.873.619-.873.436-.678.824-1.387 1.159-2.12l.151-.294.217-.44.487-1.242a8.787 8.787 0 0 0 .653-2.25l.302-1.08.085-.383.054-.326.174-1.322.046-.207v-.119c0-.05.19-.712.19-.712l.201-.384.108-.08.279-.192.077-.027h.437l.386-.295a1.294 1.294 0 0 0 .557-1.034v-.042c0-.065.035-.134.035-.15.027-.214.062-.528.062-.528v-1.729a1.439 1.439 0 0 0-.847-1.226l-.182-.088-.328-.038h-.081l-.306-.027-.305-.05h.019l-.166-.023-.387-.046-1.225-.103-3.175-.13-.495-.035c-1.593-.115-3.093-.226-4.774-.222h-.07c-1.338-.223-1.694.076-1.694.076l-.162.552-.189.766c0 .035.034-.134.034-.134v.073l-.069.307v-.127l-.054.272-.097 1.533v-.054l.062.41-.019-.191c.004.297.104.584.286.82.181.236.435.408.723.49l.224.096.367.054.07.026.363.177h.058c.213.12.397.283.542.479l-.031-.08.266.52c.199.637.282 1.304.244 1.97V29.592l-.031.345v1.314l-.042.219v.142l-.031.122-.151 1.257-.182 1.219-.124.47-.069.277a4.462 4.462 0 0 1-1.872 2.705l-.1.038-.835.349a.713.713 0 0 1-.271.13h-.069c-.882.127-1.16-.019-1.23-.05l-.093-.053-.352-.2c-1.492-1.206-2.319-2.605-2.768-4.67l.02.107-.283-1.196v-.08c0 .042-.042-.238-.042-.238v-.187l-.31-1.79a42.453 42.453 0 0 1-.657-4.709 2.466 2.466 0 0 1-.038-.284c0-2.804.042-5.548.583-8.257l.043-.138.135-.529c0-.065.085-.444.085-.444l.178-.832c.356-1.314 1.299-4.8 4.095-6.222a5.545 5.545 0 0 1 2.18-.544 2.56 2.56 0 0 1 1.547.697l.065.05a11.98 11.98 0 0 1 1.732 2.34c.418.852.661 1.777.716 2.722v.413a1.785 1.785 0 0 0 0 .207 1.285 1.285 0 0 0 .881 1.303c.454.149.93.221 1.408.215l.529.026.244-.042h.066-.093.201l.588-.306.197-.077.093-.092.386-1.065v-.46l.163-1.533.061-.268.047-.13.448-2.13.538-2.35.116-.475.197-.559.046-.134a1.375 1.375 0 0 0-.29-.862l.043.023a2.289 2.289 0 0 0-.159-.173.642.642 0 0 0-.05-.065 5.872 5.872 0 0 0-1.16-.724 2.533 2.533 0 0 0-1.191-.318h-.386l-.155.126-.448.315-.314.743s-.085-.088-.096-.069a2.786 2.786 0 0 0-.669-.506l-.077-.034h-.02c-.858-.897-3.336-1.84-4.539-1.874l-1.272-.115c-1.5-.14-3.012-.01-4.465.383z"/><path fill="#b82233" d="m182.295 22.845-.441.165-.212.417c-.183.374-.286.78-.302 1.196-.018.4.1.793.336 1.118.236.325.575.561.963.671-.038.362-.101.72-.189 1.073l-.259 1.406a58.275 58.275 0 0 0-.576 8.43v.494c0 .127 0 .303.019.464a1.455 1.455 0 0 1-.039.322l-.243.054c-.514.114-1.879.421-1.875 2.26 0 .383 0 1.223.753 1.598l.236.115.959.035 4.392.149h2.653a5.247 5.247 0 0 0 1.894-.226l.387-.176.197-.384c.177-.357.267-.75.263-1.15a2.236 2.236 0 0 0-.538-1.447l-.193-.246-.178-.065-.754-.306-.089-.031a11.059 11.059 0 0 1-.154-2.023c0-4.031.413-6.33.87-7.664a3.318 3.318 0 0 0 1.276 1.363 3.368 3.368 0 0 0 1.817.465 3.499 3.499 0 0 0 2.466-.965 3.438 3.438 0 0 0 1.064-2.407c0-2.437-1.647-4.138-3.998-4.134a4.978 4.978 0 0 0-1.956.429c0-.073.123-.97.123-.97a.626.626 0 0 0-.232-.383c-.216-.188-.947-.15-.947-.15l-2.034-.05c-.027-.014-4.063.02-5.459.553z"/><path fill="#b82233" d="M203.756 22.795a9.49 9.49 0 0 0-4.805 1.34 9.378 9.378 0 0 0-3.441 3.584c-.774 1.433-1.342 3.659-1.338 4.694 0 5.088 3.329 10.495 9.488 10.487 5.757 0 10.095-4.027 10.095-9.36a11.487 11.487 0 0 0-3.348-8.082 9.09 9.09 0 0 0-3.049-2.01 9.15 9.15 0 0 0-3.602-.653zm-7.164 9.618c.135-1.238.49-2.442 1.048-3.556a6.946 6.946 0 0 1 2.566-2.676 7.03 7.03 0 0 1 3.589-.987 6.794 6.794 0 0 1 4.914 1.977 9.034 9.034 0 0 1 2.622 6.372c0 4.514-3.952 6.955-7.675 6.958-4.585 0-7.06-4.165-7.064-8.088z"/><path fill="#b82233" d="M199.477 31.359c0 1.042.131 10.185 4.446 10.18 1.933 0 4.218-1.555 4.21-8.958 0-5.828-1.396-8.782-4.133-8.782-3.584.004-4.527 4.939-4.523 7.56zm2.42 0c0-2.111.746-5.158 2.103-5.158.824 0 1.713 1.997 1.717 6.38 0 4.307-.901 6.56-1.794 6.56-.978 0-2.022-4-2.026-7.782zM220.172 22.607c-.132-.28-.055-.16-.283-.62-.228-.46-1.121-.437-1.121-.437a24.91 24.91 0 0 0-4.466.505l-.174.039c-.56.122-2.056.456-2.056 2.107v1.004l.351.28.774.62a23.68 23.68 0 0 0-.228 2.963v.176l-.031.383-.051.479-.081.84.089 4.344c0 .073.093.924.093.924l.089 1.038.05.767.039.536s0 .088.031.195l-.31.062-.224.084-.499.207-.286.383a2.465 2.465 0 0 0-.437 1.318l.093.85.058.342.576.862h.515l.599.023.154.077 3.422-.05.476-.027h.464c.931.043 1.865.01 2.791-.096.22-.015.439-.047.653-.095a1.54 1.54 0 0 0 .979-1.28.932.932 0 0 1 .038-.115v-.655s0-.05-.023-.081v-.02l-.201-.857.348.126.456.26.542.085a6.55 6.55 0 0 1 1.221-.088h.097l.085-.046.97-.046.851-.065c.223-.038.45-.052.677-.042l.154-.031H229.528c.372.006.744-.013 1.113-.058l-.081.173v.383c0 .096 0 2.468 1.547 2.468h.189a62.124 62.124 0 0 1 2.641-.207l.414-.035H235.556l.421-.05h-.112l.847-.084.386-.046.387-.03h.151l.429-.043H238.386l.247-.046.514-.072a3.388 3.388 0 0 0 1.825-.568l.457-.333.027-.575c0-.053.046-.444.046-.444 0-.188 0-.406-.031-.767a1.896 1.896 0 0 0-.205-.597l-.611-.314-.661-.234h.023-.031a.931.931 0 0 1-.065-.13v-.138l.058-.598.12-4.537v-1.678c0-2.253-.163-5.081-1.45-6.748a2.89 2.89 0 0 0-.627-.766 6.3 6.3 0 0 0-4.199-1.682 5.379 5.379 0 0 0-2.127.342 5.332 5.332 0 0 0-1.816 1.148l-.124.138c-.495-1.035-1.311-2.088-2.246-2.552a6.024 6.024 0 0 0-2.664-.651 6.436 6.436 0 0 0-2.56.566 6.369 6.369 0 0 0-2.114 1.537zm2.706 4.008s.058 0 .085.027l.039.027.243.096.213.36c0 .042.085.575.085.575s.046.299.073.494l-.042 1.533a81.542 81.542 0 0 0-.217 5.747v.717l-.162.088c-.479.234-1.477.724-1.477 1.916 0 0 .143 1.061.166 1.245a2.315 2.315 0 0 0-.97-.686l-.132-.057-.185-.142a1.516 1.516 0 0 1-.178-.602v-.11l-.039-.449-.069-.479v-1.103l-.027-.61c.013-1.371.112-2.74.297-4.1l.074-.33s.139-.865.151-.93l.127-.41.074-.383.44-1.008.043-.065a7.75 7.75 0 0 1 1.16-1.253zm9.101 1.61c.158.67.242 1.357.252 2.046v.322l.042.344-.039 2.545v.766l-.038 1.253-.051 1.15-.034.486-.136-.053-.274-.219-.17-.337-.484-.264-.201-.115a.548.548 0 0 1-.034-.15l-.066-.463a5.175 5.175 0 0 1-.085-1.062c0-.383 0-.812.039-1.184v-.49l.228-1.694.112-.663.093-.479v.073c.234-.625.517-1.23.846-1.812zM243.596 13.963a4.959 4.959 0 0 0-2.073.693 6.636 6.636 0 0 0-1.898 2.012 3.147 3.147 0 0 0-.429 1.636 6.04 6.04 0 0 0 .514 2.188 5.005 5.005 0 0 0 2.246 2.318h.07a6.28 6.28 0 0 0 3.039.383 4.937 4.937 0 0 0 2.594-1.352c.731-.724.905-1.08 1.249-2.548.56-2.081-1.276-4.035-1.651-4.407l-.043-.038c-1.318-1.203-3.251-.947-3.618-.885z"/><path fill="#b82233" d="m241.052 23.53-.494.322v.353l-.097 1.15v.23l.042.36v.33l.194.329a1.888 1.888 0 0 0 1.573.766c.453 1.82.658 5.269.662 8.1l-.116 2.376-.279.096a3.101 3.101 0 0 0-1.372.712c-.619.617-.619 1.476-.619 1.99l.329 1.084.247.268c.916.686 7.253.85 7.315.85 2.436 0 3.174-.8 3.174-.8l.252-1.054a.687.687 0 0 1 0-.111v-.418a3.855 3.855 0 0 0-.213-1.376v-.08a1.636 1.636 0 0 0-.473-.658 1.659 1.659 0 0 0-.733-.353 1.694 1.694 0 0 1-.062-.3l.17-2.563.182-2.87c0-1.46-.325-7.039-1.033-8.702l.055.154s-.232-1.273-1.01-1.533l-.135-.042-.243-.02h-.194l-.429-.026c-1.419.007-5.053.371-6.693 1.437z"/><path fill="#b82233" d="m255.882 14.312-.827.272-1.09 3.042-.29.981-.178.552h-.387a8.345 8.345 0 0 0-1.898.042l-.422.069-.282.318c-.534.7-.815 1.559-.796 2.437v.16c0 .055.201.767.201.767l.475.701.692-.038a9.639 9.639 0 0 1 1.087.023c-.746 2.759-1.52 5.958-1.516 9.124 0 5.069 2.486 10.184 8.027 10.18 3.727 0 6.793-3.065 7.902-6.058l.287-.766-.665-.56a4.395 4.395 0 0 0-1.439-.904l-.901-.299-.506.794a2.21 2.21 0 0 1-.788.768c-.324.187-.69.289-1.064.297-.986 0-1.376-.253-1.686-.655-.611-.851-.734-1.855-.734-3.4 0-1.746.417-3.635.819-5.467l.124-.548.019-.096a8.564 8.564 0 0 1 .65-2.096l1.817-.069.534.031c.549.05 1.295.115 1.898-.433a2.284 2.284 0 0 0 .634-1.763V21.39a1.912 1.912 0 0 0-.626-1.598l-.279-.207-2.981-.245c.047-.165.101-.341.147-.49.264-.741.418-1.515.457-2.3v-1.368l-.897-.237a14.447 14.447 0 0 0-2.85-.383 13.565 13.565 0 0 1-2.014-.23l-.329-.077z"/><path fill="#f05a22" d="M39.69 4.437c-.132.483-1.5.92-1.5.92a4.618 4.618 0 0 0-.75 1.448c-.178.79-1.106 3.594-1.632 5.391-.526 1.797-1.504 5.173-2.297 7.729-.792 2.556-2.911 9.909-3.44 11.706-.53 1.797-3.04 10.694-3.48 10.959-.441.264-.665.134-1.462.046-.796-.088-1.06.088-1.457-.437-.399-.525-.445-1.23-.932-2.76-.487-1.528-1.477-5.226-1.864-7.069-.386-1.843-.843-6.18-1.508-6.046-.665.134-1.372 4.383-1.855 5.962-.484 1.579-2.293 8.943-2.645 9.292-.352.349-2.347.66-3.093.222-.746-.436-.445-.567-1.063-2.103-.619-1.537-.8-2.276-1.597-4.687-.797-2.41-1.063-3.946-1.597-6.092-.533-2.146-.619-3.288-1.024-4.981-.406-1.694-.352-2.108-.662-3.595a206.15 206.15 0 0 1-.889-4.467c-.398-2.104-.8-4.031-1.11-7.012-.309-2.981-.355-4.311-.54-5.189-.186-.877-1.284-.7-1.772-.961-.487-.26-.262-1.054-.088-1.227.174-.172 3.054-.222 4.91-.268 1.856-.046 3.804.173 5.8.169 1.994-.004 1.724.877 1.105 1.579-.619.7-.31.176-1.547.965-.386.265 0 3.418.14 5.127.139 1.709 1.16 8.897 1.38 10.216.22 1.318 1.102 6.743 1.632 6.782.53.038 2.474-6.898 3.711-8.944 0-.088-.313-2.716-.537-4.077-.224-1.36.089-1.448-.178-1.881-.267-.433-.75-.475-.885-1.192-.136-.716.22-.789.753-.877.534-.088 6.144-.575 7.25-.575 1.106 0 .576 1.357 0 1.487-.576.13-1.06 1.464-.611 4.403.448 2.938.669 5.169 1.334 8.016.665 2.847.931 5.257 1.728 6.226.387.433 4.145-14.296 4.64-16.005.495-1.71 1.496-5.215 1.716-6.004.22-.79.387-.617 0-1.449-.386-.831-1.07-.203-1.299-.92-.228-.716-.386-1.05 1.465-1.007 1.852.042 3.051.084 4.78.214 1.728.13 1.101.525.97.966zM47.557 39.934c-.162.179-.31.37-.441.571a3.417 3.417 0 0 1-4.114.571c-.089-.13-.263-.218-.352-.348-.355-.219-.885-1.184-.974-1.625-.046 0-.089-.042-.135-.042h-.043a16.145 16.145 0 0 1-1.678 1.797h-.046c-.708.617-1.898.835-2.784.835-1.546 0-2.567-.479-3.715-1.356-1.149-.878-1.771-2.629-1.775-3.985a7.118 7.118 0 0 1 .978-3.376c.274-.41.584-.795.928-1.15 2.32-2.015 3.58-2.299 6.457-2.896.352-.046 1.457-.265 1.635-.483.352-.437.132-1.15.263-1.314v-.767a1.963 1.963 0 0 0-.22-.831l.042-.046c-.351-1.15-1.99-2.1-2.919-1.617a6.662 6.662 0 0 0-1.813 1.532l.046.13c.534.556.607.599.843 1.288.135.44-.174.836-.31 1.272-.084.265-.75.702-1.016.836-.516.08-1.043.05-1.546-.088-.53-.219-1.238-1.184-1.238-1.752 0-1.314 1.5-2.893 2.606-3.51a7.663 7.663 0 0 1 3.449-1.149c.31 0 .619-.046.928-.046.847.08 1.679.273 2.474.57a5.77 5.77 0 0 1 2.258 2.365c.225.383.313.79.534 1.15.267.567.31 1.705.31 2.299 0 .965.134 1.916.134 2.939a9.382 9.382 0 0 0 0 1.15c0 .382-.046.766-.046 1.18 0 1.149.093 2.298.14 3.448 0 .218.042.437.046.659 0 .038.085.437.174.479.618.613.707-.13.928-.218l.088-.046a.366.366 0 0 1 .275.165.359.359 0 0 1 .035.317c-.063.387-.201.758-.406 1.092zm-5.92-9.418c0-.383-.576-.487-.885-.483-.773 0-1.813.571-1.902.571a4.733 4.733 0 0 0-1.28 1.2h-.046c-.178.655-.387 1.007-.387 1.796v1.096c0 .525.313 1.445.712 1.751l.046.092c.288.173.601.302.928.384h.228c1.724 0 1.724-.533 2.254-2.196.131-.784.219-1.574.263-2.368 0-.383 0-.877.042-1.272h.047zM51.186 27.527c-.089-3.904 0-7.847-.228-11.748-.047-.79-.178-1.916-1.11-2.234-.44-.176-.352-.13-.53-.13-.177 0-.177-.307-.177-.437a4.94 4.94 0 0 1 .089-.79c.665-.31 4.6-.382 5.308-.382a5.94 5.94 0 0 1 1.523.072l.174.177c.36 2.057.847 4.337.847 6.445 0 2.498.228 4.98.228 7.49 0 3.947-.259 7.844-.255 11.79 0 1.886.31 1.23 1.284 2.193.174.218 0 .529 0 .789a.46.46 0 0 1-.09.349c-.439.06-.883.076-1.326.05-1.77 0-3.669.134-5.44.306-.522.127-1.053.216-1.588.265-.356 0-.387-.384-.387-.66.046-.567 0-.436.224-.785 1.852-.705 1.585-4.954 1.585-6.71 0-1.356-.046-2.682-.05-4.03zM61.99 27.516c-.092-3.9 0-7.844-.231-11.745-.043-.789-.178-1.915-1.106-2.233-.44-.177-.356-.13-.534-.13-.177 0-.174-.311-.174-.441.007-.266.037-.53.09-.79.66-.306 4.596-.383 5.304-.383a5.952 5.952 0 0 1 1.504.088l.178.177c.355 2.057.843 4.337.843 6.44 0 2.499.228 4.982.228 7.5 0 3.942-.26 7.843-.255 11.786 0 1.881.309 1.226 1.283 2.192.178.218 0 .528 0 .789a.48.48 0 0 1-.085.349c-.44.058-.886.074-1.33.046-1.767 0-3.67.134-5.436.31-.524.127-1.056.215-1.593.264-.356 0-.387-.383-.387-.655.043-.57 0-.44.22-.793 1.857-.701 1.586-4.95 1.586-6.706 0-1.356-.046-2.682-.046-4.034zM85.533 39.904c-.161.179-.308.37-.44.57a3.413 3.413 0 0 1-4.114.575c-.09-.134-.267-.222-.352-.352a3.543 3.543 0 0 1-.978-1.613c-.043 0-.09-.042-.132-.042h-.046c-.512.64-1.072 1.24-1.674 1.797h-.046c-.708.613-1.903.835-2.788.835-1.547 0-2.563-.483-3.716-1.356-1.152-.874-1.77-2.629-1.77-3.99a7.071 7.071 0 0 1 .97-3.375c.272-.411.583-.796.928-1.15 2.296-2.019 3.58-2.299 6.453-2.9.355-.042 1.461-.265 1.635-.483.356-.437.136-1.15.267-1.314v-.74a1.925 1.925 0 0 0-.22-.835l.046-.042c-.356-1.15-1.991-2.1-2.923-1.621-.69.401-1.304.92-1.813 1.533l.046.134c.53.52.619.57.84 1.287.13.437-.175.832-.31 1.268-.089.265-.75.705-1.017.836a3.705 3.705 0 0 1-1.546-.085c-.534-.218-1.242-1.184-1.242-1.75 0-1.319 1.5-2.897 2.606-3.51a7.59 7.59 0 0 1 3.45-1.15c.308 0 .618-.046.927-.046.848.08 1.681.27 2.478.567a5.842 5.842 0 0 1 2.258 2.368c.225.383.31.766.534 1.15.267.57.31 1.709.31 2.322 0 .965.134 1.916.134 2.939-.021.382-.021.766 0 1.15 0 .382-.042.788-.042 1.183 0 1.15.089 2.3.135 3.449 0 .222.043.44.043.659 0 .042.093.437.178.479.622.617.707-.13.928-.219l.092-.042a.39.39 0 0 1 .264.173.382.382 0 0 1 .046.31c-.07.364-.205.714-.399 1.03zM79.6 30.485c0-.383-.577-.482-.886-.479-.75 0-1.813.567-1.898.567a4.708 4.708 0 0 0-1.284 1.188h-.046c-.174.656-.387 1.008-.387 1.797v1.096c0 .525.313 1.445.712 1.751l.042.088c.29.17.602.3.928.384H77c1.725 0 1.725-.525 2.254-2.192a20.49 20.49 0 0 0 .267-2.364c0-.383 0-.882.043-1.272h.042zM97.9 28.236c-.309-.306-.838-.383-.838-1.579 0-.831.263-.831.572-1.402.178-.26.708-.26.665-.655a1.178 1.178 0 0 0-.576-.843c-1.415-.383-2.92 1.15-3.48 2.276a10.944 10.944 0 0 0-1.16 2.632l-.437 2.3c-.217 1.44-.169 2.909.144 4.333.135.613.386 1.751.796 2.234 1.91 2.318 3.456 2.406 5.003 2.058.839-.177 1.326-.66 1.991-1.273.335.094.629.293.839.567l.046.046c-.618 1.751-3.804 2.717-5.528 2.721a9.854 9.854 0 0 1-5.377-1.601 9.725 9.725 0 0 1-3.605-4.265c-.44-1.15-.932-2.763-.932-4.031 0-3.947 1.806-6.534 4.458-8.2.373-.219.76-.41 1.16-.575 1.415-.655 3.093-.743 4.64-.747 1.546-.004 4.16 1.226 4.999 2.624.443.523.717 1.165.789 1.843 0 1.403-.924 2.146-2.254 2.15-.84 0-1.338-.088-1.914-.613z"/><path fill="#f05a22" d="M117.188 29.232c-2.32 1.05-5.413.79-7.961 1.36-.487.135-.387 1.012-.352 1.407.043 2.494.05 6.004 1.86 6.966.491.264.622.525 1.508.57 1.635.043 2.211-.658 3.58-1.275a1.159 1.159 0 0 1 .619.79 7.577 7.577 0 0 1-2.497 1.93 7.64 7.64 0 0 1-3.075.751c-5.304 0-9.155-4.287-9.159-9.418 0-5.568 4.326-9.645 9.809-9.694 3.449-.046 5.838 2.682 6.02 6.13-.08.185-.2.35-.352.483zm-6.066-5.038c-1.191.134-2.03 3.2-2.03 4.471 0 .088 0 .176.046.219l.178.134a20.173 20.173 0 0 0 3.228-.533l.085-.13c.124-.59.184-1.191.178-1.793-.004-.702-.754-2.503-1.685-2.368zM129.959 17.212c1.059-.766 1.902-.881 3.093-.881a4.93 4.93 0 0 1 2.944.994 4.852 4.852 0 0 1 1.746 2.55l.042.092c0 .307.089.613.089.92 0 2.299-1.589 3.111-3.093 4.475.839 2.625 1.86 5.824 3.364 8.1a11.668 11.668 0 0 0 2.339-6.617c0-.701-.796-.877-1.283-1.18-.043-.046-.31-.529-.352-.571l-.093-.383c.224-.307 4.206-1.276 4.821-1.272h.267c.163.31.24.658.224 1.007 0 .353-.386.437-.622.66-.971.877-1.323 4.383-1.763 5.697-.53 1.801-1.28 3.066-2.386 4.825l-.042.088c1.326 1.755 1.817 4.291 4.639 3.544.262.31.485.65.665 1.012l-.73.551c-1.238.571-2.255 1.058-3.759 1.058-1.906 0-3.008-1.008-4.338-2.192v-.088c-1.546 1.15-3.093 2.15-5.084 2.153a7.062 7.062 0 0 1-4.334-1.356h-.042a7.394 7.394 0 0 1-2.597-2.675 7.318 7.318 0 0 1-.949-3.59 5.092 5.092 0 0 1 .224-1.663c.526-1.885 1.721-4.215 3.534-5.134 0-.039.085-.173.132-.13.75-.614 1.631-1.008 2.428-1.575a8.82 8.82 0 0 1-1.33-4.342c0-1.184.267-2.456 1.237-3.245zm2.656 16.565c-.97-1.533-2.037-5.303-2.169-5.392-1.194.046-2.784 4.123-2.784 5.177 0 2.629 1.419 5.215 4.385 5.211.885 0 1.813-.528 2.474-1.096-.359-.923-1.133-1.659-1.906-3.9zm1.408-15.12c-.975 0-1.462 1.004-1.462 1.75.011.484.117.96.313 1.403.214.392.391.803.53 1.226l.178.13c1.16-.743 1.991-1.272 1.991-2.85.007-.42-.15-.827-.437-1.135a1.656 1.656 0 0 0-1.106-.524zM182.147 24.4c0 .047-.042.093-.042.135v.088c0 .042-.089.088-.132.134h-.224l-.387.13a3.07 3.07 0 0 0-.614.44c-.093.043-.178.173-.267.261-.089.177-.178.307-.267.483a4.505 4.505 0 0 0-.309 1.008c-.043.176-.043.383-.089.525a14.661 14.661 0 0 1-.217 1.533c-.046.042 0 .13-.046.172a.3.3 0 0 1-.043.222c-.064.37-.153.735-.266 1.092l-.043.046c-.108.66-.3 1.304-.572 1.916-.089.26-.267.701-.487 1.226-.089.223-.221.383-.352.701a16.031 16.031 0 0 1-1.16 2.062 6.225 6.225 0 0 1-.441.613c-.326.38-.676.738-1.048 1.073-.529.437-1.279 1.226-1.933 1.533a4.001 4.001 0 0 1-.386.31c-.221.084-.484.218-.75.349-.178.088-.356.134-.534.218a3.38 3.38 0 0 1-.661.222 3.688 3.688 0 0 1-.974.31c-.619.173-1.327.526-1.988.526-.046 0-.386.042-.444.042-1.856 0-3.48-.038-5.262-.697a.27.27 0 0 0-.174-.043 1.651 1.651 0 0 0-.491-.218c-2.919-.962-5.131-3.372-6.817-5.87-.263-.349-.44-.744-.707-1.092-2.123-3.112-3.144-8.047-2.749-12.71v-.307c.22-5.042 2.992-9.863 4.539-11.4 3.182-3.065 4.253-3.95 9.151-5.222a11.31 11.31 0 0 1 4.025-.352l1.28.13c.843-.046 3.275.916 3.804 1.533.178.176.267.26.387.264.188.091.353.222.483.383.047 0 .047 0 .047.042.178.13.263.13.386.219.047 0 .093.042.136.042h.263a.51.51 0 0 0 .224-.042c.131 0 .263-.13.356-.219.2-.172.365-.381.483-.617a.473.473 0 0 1 .089-.218.86.86 0 0 1 .131-.088c.445 0 .665.264.886.264.251.117.477.281.665.483.042 0 .042.13.042.172a.217.217 0 0 1-.046.135v.13a2.42 2.42 0 0 0-.221.479.151.151 0 0 1-.042.092c-.441 1.49-.619 3.023-1.017 4.514 0 .042-.043.088-.043.13 0 .042-.046.218-.046.306a.153.153 0 0 1-.042.089c-.083.567-.122 1.14-.116 1.712v.441c0 .042 0 .176-.047.218l-.089.089h-.042c-.043 0-.043.042-.089.042a1.463 1.463 0 0 0-.263.046 5.91 5.91 0 0 1-1.508-.173c-.131-.046 0-.352-.043-.483v-.352a8.216 8.216 0 0 0-.8-3.111c-.22-.571-1.635-2.54-2.169-2.893a3.733 3.733 0 0 0-2.3-.962 6.692 6.692 0 0 0-2.742.659c-3.448 1.759-4.415 5.924-4.771 7.192a.486.486 0 0 1-.042.222c-.046.307-.132.613-.178.92-.042.218-.131.483-.178.655-.591 2.855-.63 5.66-.63 8.553 0 .134.043.218.043.31.139 2.234.626 4.422.978 6.614.005.193.036.385.093.57.114.36.203.725.266 1.096.484 2.28 1.419 3.943 3.229 5.392.135.084.355.214.533.302.576.353 1.415.31 2.034.219.046 0 .131-.042.178-.042.324-.054.637-.16.928-.31.18-.122.371-.224.572-.307a5.548 5.548 0 0 0 2.432-3.376c.089-.264.135-.571.22-.79 0 0-.042-.045 0-.042.221-.877.178-1.452.352-2.59.038-.142.054-.29.046-.437a.377.377 0 0 1 .043-.218v-1.314c0-.046.046-.307.042-.353 0-1.15.128-2.805-.355-3.855l-.267-.528-.043-.043a3.048 3.048 0 0 0-1.063-.92.284.284 0 0 0-.178-.041c-.131-.042-.22-.13-.351-.177a.893.893 0 0 0-.267-.088h-.178c-.178-.088-.387-.13-.387-.26s-.046-.177-.046-.219l.085-1.406a.816.816 0 0 0 .046-.218c.011-.164.04-.326.085-.483h.445c.128.023.257.038.387.046 1.813 0 3.402.126 5.215.257l3.233.13c.28-.007.56.007.839.042.444 0 .487.13.927.13h.047c.071.025.145.04.22.046.132 0 .31.042.441.042s.178.13.178.177c.046.57-.043 1.184 0 1.75.008.147-.005.295-.039.438zM191.084 27.73c.022-.326.068-.65.136-.97a.328.328 0 0 0 .085-.214c0-.18-.174-.264-.356-.306-2.706.962-2.822 7.978-2.819 10.518-.022.885.067 1.77.267 2.632.576.656.708.433 1.373.767.168.195.261.444.263.7.005.214-.04.425-.132.618-.463.106-.94.15-1.415.126h-2.652c-.445 0-4.999-.168-5.026-.168-.027 0-.089-.483-.089-.53 0-1.31.97-.873 1.678-1.356.707-.482.444-1.532.44-2.237-.01-2.787.18-5.57.569-8.33.089-.92.487-1.916.487-2.805 0-1.226-1.33-.521-1.33-1.575.017-.229.078-.452.178-.66.928-.352 3.978-.486 5.026-.486.576 0 1.106.042 1.682.042l.22.134c0 .384-.174.744-.131 1.15v.352c.089.089.309.307.386.307.708 0 1.547-.835 2.877-.835 1.767 0 2.788 1.226 2.788 2.935a2.245 2.245 0 0 1-.683 1.562 2.28 2.28 0 0 1-1.591.641c-1.21 0-2.227-.743-2.231-2.012zM203.657 41.7c-5.177 0-8.274-4.551-8.278-9.287a11.417 11.417 0 0 1 1.191-4.12 8.14 8.14 0 0 1 3.002-3.136 8.238 8.238 0 0 1 4.201-1.163c5.219-.095 8.761 4.683 8.765 9.549.003 4.866-4.145 8.154-8.881 8.158zm.34-16.702c-2.656 0-3.314 4.43-3.314 6.36 0 1.932.495 8.986 3.237 8.986 2.83 0 3.004-5.832 3-7.767-.004-1.935-.139-7.579-2.923-7.579zM224.827 28.14c-.05-.472-.125-.941-.224-1.406a7.337 7.337 0 0 0-.441-.766c-.089-.219-.444-.261-.618-.35a1.45 1.45 0 0 0-.619-.175 1.556 1.556 0 0 0-.885.264c-.441.218-1.458 1.402-1.636 1.713-.218.41-.41.834-.576 1.268-.085.222-.174 1.012-.263 1.15-.052.386-.126.77-.22 1.15-.19 1.41-.292 2.83-.306 4.252 0 .567.093 1.15.047 1.713.046.127.089.916.131 1.15.047.482.267 1.272.774 1.49.22.307.753.307.974.613.053.12.068.254.042.383v.089c.009.131.039.26.089.383-.174.26.043.383-.352.567l-.204.054c-.356.053-2.583.038-2.935.038-.22 0-.534.042-.75.046-1.063 0-2.123 0-3.139.046l-.093-.046a2.37 2.37 0 0 1-.797-.042l-.085-.13a4.118 4.118 0 0 1-.093-.767c.022-.254.115-.496.267-.701.132-.042.31-.13.441-.176.313-.13.622.088.928-.35.135-.175.089-.382.135-.57a.756.756 0 0 1-.046-.44c0-.437-.089-.878-.089-1.315 0-.655-.132-1.31-.178-1.97-.046-1.444-.093-2.892-.093-4.34 0-.438.132-.878.132-1.315 0-.176.042-.353.042-.567.022-1.086.11-2.17.263-3.246a1.011 1.011 0 0 0-.53-.965h-.224l-.174-.042c-.089-.089-.178-.13-.22-.177v-.452c0-.74.661-.827 1.237-.962 1.4-.288 2.823-.451 4.253-.486a.497.497 0 0 1 .263.088c.046.046.093.088.093.13.103.667.25 1.326.44 1.974l.089.046a.338.338 0 0 1 .178-.092c.271-.4.565-.785.882-1.15a5.309 5.309 0 0 1 1.839-1.504 5.368 5.368 0 0 1 2.317-.557 4.72 4.72 0 0 1 2.126.52c.882.441 1.725 1.798 1.992 2.763.042.173.131.832.177.962l.086.046.135-.046c.501-.499.972-1.026 1.411-1.579a4.237 4.237 0 0 1 3.008-1.095c1.266.015 2.481.499 3.406 1.356v.042c.136.088.387.307.387.437 1.508 1.709 1.287 5.874 1.287 7.847 0 1.487-.127 2.978-.127 4.514 0 .26-.085.571-.085.832.052.396.259.756.576 1.004.165.127.364.204.572.222.089.088.178.088.267.134v.084a.76.76 0 0 1 .174.525c0 .134-.043.265-.043.383-.529.384-1.326.265-1.933.441h-.089a2.975 2.975 0 0 0-.618.042c-.089 0-.387.042-.488.042-.386 0-.792.134-1.237.134-.046 0-.22.046-.309.046h-.135c-.178 0-.306.046-.484.043-.309 0-2.563.18-2.83.226-.178 0-.356-1.054-.356-1.269v-.11c.221-.484 1.458-.223 1.458-1.668 0-.218.089-.44.089-.7 0-.384.089-.79.089-1.23 0-.832.128-1.622.085-2.453v-.701c0-.832.042-1.71.042-2.545v-.348l-.046-.042c-.046-1.096-.046-2.15-.445-3.204l-.088-.084a1.17 1.17 0 0 0-1.06-.383h-.135c-.441.218-.309.218-.661.57a10.486 10.486 0 0 0-1.102 2.369 1.7 1.7 0 0 1-.089.44 22.15 22.15 0 0 0-.356 2.499v.172c-.094.934-.077 1.875.05 2.805.018.238.062.473.132.701.042.088.042.219.089.353.231.263.517.472.839.613l.046.088c.131.048.241.14.31.26v.085a3.979 3.979 0 0 1-.132.7c-.178.18-1.195.135-1.504.139-.619 0-1.241.042-1.86 0l-.042.042c-.53-.084-1.16.088-1.725.092-.309 0-.661.042-.974.042l-.046.042a8.709 8.709 0 0 0-1.5.092c-.047-.046-.089-.088-.089-.13l-.089-.046a3.568 3.568 0 0 1-.089-.617c0-.74 1.106-.766 1.504-1.314.22-.349.131-1.05.131-1.403 0-1.881.085-3.766.217-5.697zM246.404 15.71c.53.521 1.682 1.97 1.327 3.284-.356 1.314-.387 1.448-.928 1.973a3.756 3.756 0 0 1-1.899 1.054 5.143 5.143 0 0 1-2.347-.26 3.8 3.8 0 0 1-1.724-1.71c-.352-.919-.661-1.915-.178-2.762a5.56 5.56 0 0 1 1.5-1.62 3.837 3.837 0 0 1 1.593-.53s1.682-.295 2.656.571zm2.053 25.945c-.796 0-6.236-.345-6.572-.61a.658.658 0 0 1-.085-.383c0-.383 0-.877.263-1.149.576-.57 1.766-.307 1.933-1.31l.042-.05c.09-.892.134-1.787.132-2.683 0-2.456-.182-6.923-.847-8.943-.132-.26-.445-.303-.773-.349-.329-.045-.661 0-.839-.26 0-.13-.047-.264-.047-.353a4.092 4.092 0 0 1 .058-1.042c1.28-.835 4.508-1.234 6.012-1.234.178 0 .445.046.619.042.174-.003.178.571.224.706.572 1.356.932 6.514.936 8.238 0 1.84-.352 3.64-.352 5.433 0 .383.224 1.226.576 1.36.445.13.619.043.8.437a4 4 0 0 1 .128 1.449c0 .172.046.306-.042.437-.086.23-1.856.275-2.166.275zM258.654 41.705c-4.91 0-6.813-4.82-6.816-8.982 0-3.376.924-6.84 1.805-10.04l-.135-.133a12.384 12.384 0 0 0-2.521-.173l-.089-.13v-.088a2.816 2.816 0 0 1 .487-1.797c.797-.13 1.636 0 2.475 0l.355-.042.221-.219c.266-.57.386-1.314.665-2.103.278-.79.614-1.667.877-2.456l.267-.089c1.547.353 3.186.173 4.821.61v.352c.047 1.184-.75 2.682-.703 3.449l.042.383.136.134c1.237.13 2.432.172 3.669.303.181.13.135.747.135.965 0 1.403-.75.962-1.86.962-.703 0-1.546.092-2.207.092-.843-.042-1.415 2.939-1.458 3.111-.445 2.02-.97 4.215-.97 6.273 0 1.533.092 2.893.978 4.12.661.873 1.546 1.149 2.652 1.149a3.465 3.465 0 0 0 1.646-.447 3.427 3.427 0 0 0 1.227-1.174 3.33 3.33 0 0 1 1.059.701c-.993 2.767-3.688 5.265-6.758 5.269z"/><path fill="#f7ab1f" d="M27.926 29.002c.387.437 4.149-14.292 4.64-16.005.49-1.713 1.496-5.215 1.716-6.004.22-.79.387-.617 0-1.445a.766.766 0 0 0-.599-.506.82.82 0 0 1 .09.142c.386.832.177.66 0 1.449-.179.789-1.296 4.295-1.721 6.012-.449 1.563-3.615 14-4.462 15.79.09.201.203.392.336.567zM33.005 4.652v-.023c-.182-.747-.387-1.054 1.453-1.012 1.84.042 3.055.088 4.775.215.229.016.456.045.68.088 0-.21-.193-.383-1.186-.448-1.729-.13-2.92-.13-4.78-.215-1.859-.084-1.634.264-1.457 1.008a.506.506 0 0 0 .515.387zM17.85 11.162c.267.433 0 .52.178 1.881.178 1.36.53 3.99.53 4.077-1.122 1.866-2.823 7.767-3.527 8.794.12.31.228.502.329.51.53.088 2.467-6.898 3.704-8.944 0-.088-.31-2.716-.534-4.077-.224-1.36.09-1.444-.178-1.885-.266-.44-.742-.483-.877-1.172-.136-.69.224-.79.754-.878.53-.088 6.143-.575 7.253-.575h.108c-.062-.214-.243-.383-.622-.383-1.106 0-6.72.529-7.25.575-.53.046-.885.13-.754.877.132.748.619.717.886 1.2ZM24.18 42.532c-.386-.524-.444-1.226-.931-2.762-.487-1.537-1.461-5.215-1.864-7.055-.402-1.839-.846-6.18-1.507-6.046a.25.25 0 0 0-.128.077c.46 1.122.808 4.15 1.125 5.61.387 1.842 1.419 5.567 1.864 7.057.444 1.491.53 2.234.931 2.76.121.19.31.327.53.382 0 0-.012.004-.02-.022zM1.934 1.847c.217-.219 3.047-.222 4.906-.268 1.86-.046 3.805.172 5.8.172.336-.01.672.029.997.115-.135-.284-.568-.479-1.507-.479-1.992 0-3.983-.26-5.8-.169-1.817.092-4.686.046-4.91.269-.224.222-.44.961.089 1.226.082.04.17.072.259.092a1.037 1.037 0 0 1 .166-.958ZM11.214 40.057c-.576-1.487-.8-2.276-1.597-4.686-.797-2.41-1.056-3.95-1.59-6.093-.533-2.141-.622-3.283-1.02-4.98-.398-1.698-.356-2.12-.665-3.606-.31-1.487-.487-2.369-.89-4.472-.401-2.104-.811-4.031-1.109-7.024-.297-2.992-.36-4.295-.537-5.173a.906.906 0 0 0-.642-.628.763.763 0 0 1 .132.28c.185.877.185 2.237.537 5.173.352 2.935.707 4.908 1.11 7.012.402 2.103.533 2.977.889 4.468.356 1.49.267 1.885.661 3.594.394 1.709.537 2.805 1.025 4.98.487 2.177.796 3.668 1.596 6.109.8 2.44 1.021 3.2 1.597 4.686.576 1.487.356 1.62 1.063 2.104.053.033.108.06.167.08-.286-.31-.236-.628-.727-1.824zM34.866 28.853h.031a2.43 2.43 0 0 1-.773-1.402c0-1.315 1.5-2.893 2.606-3.51a7.678 7.678 0 0 1 3.449-1.15c.309 0 .618-.042.927-.042a9.528 9.528 0 0 1 2.479.567c.085.054.154.107.236.161a6.745 6.745 0 0 0-.735-.487 9.669 9.669 0 0 0-2.474-.57c-.31 0-.62.045-.928.045a7.663 7.663 0 0 0-3.45 1.15c-1.105.594-2.597 2.173-2.597 3.487 0 .567.7 1.533 1.23 1.75zM47.167 39.023c.491.486.65.122.8-.092a.19.19 0 0 0 0-.05.357.357 0 0 0-.152-.432.367.367 0 0 0-.157-.051l-.089.046c-.155.061-.247.433-.499.448.023.065.05.119.097.13zM42.1 31.447h.043v-.575c0-.264-.263-.383-.53-.44a.244.244 0 0 1 0 .084v.57h-.046c-.042.384-.042.878-.042 1.273a21.515 21.515 0 0 1-.263 2.368c-.53 1.663-.53 2.192-2.254 2.196h-.22a2.643 2.643 0 0 1-.534-.192c.023.023.046.054.07.073l.042.084c.29.173.604.303.932.383h.22c1.725 0 1.725-.525 2.254-2.191.132-.784.22-1.575.263-2.368.023-.391.023-.874.066-1.265z"/><path fill="#f7ab1f" d="M33.793 40.7c-1.106-.877-1.77-2.632-1.77-3.988a7.08 7.08 0 0 1 .966-3.376c.276-.408.586-.793.928-1.15 2.32-2.015 3.58-2.298 6.456-2.892.356-.046 1.458-.269 1.636-.487.352-.44.131-1.15.263-1.314v-.767a1.965 1.965 0 0 0-.22-.831l.042-.042a2.69 2.69 0 0 0-1.268-1.433c.353.278.62.648.773 1.069l-.042.046c.134.257.209.541.22.831v.767c-.132.172.089.877-.263 1.314-.178.218-1.284.437-1.635.483-2.877.613-4.157.88-6.457 2.896-.344.355-.654.74-.928 1.15a7.117 7.117 0 0 0-.97 3.376c0 1.356.664 3.111 1.774 3.985.186.141.387.268.55.383zM43.17 41.088c-.356-.219-.885-1.184-.974-1.621-.047 0-.09-.042-.132-.046h-.046l-.15.18c.17.428.433.813.773 1.127.088.13.262.218.351.348l.283.134a.932.932 0 0 1-.105-.122z"/><path d="M58.118 39.785a2.884 2.884 0 0 0-.337-.25c.098.1.212.185.337.25z"/><path fill="#f7ab1f" d="M49.655 13.338c.007-.265.036-.529.085-.79.665-.306 4.601-.382 5.309-.382a9.963 9.963 0 0 1 1.194.027c0-.043 0-.085-.027-.127l-.155-.188a5.947 5.947 0 0 0-1.503-.084c-.708 0-4.64.088-5.309.383-.05.26-.08.525-.089.79 0 .13 0 .436.178.436a.557.557 0 0 1 .34.058c-.023-.05-.023-.088-.023-.123ZM49.99 41.433c.043-.571 0-.437.217-.79 1.86-.705 1.59-4.954 1.59-6.71 0-1.355-.047-2.681-.047-4.03l-.046-2.016c-.093-3.9 0-7.843-.232-11.748-.043-.766-.178-1.862-1.04-2.203.413.49.494 1.26.53 1.843.223 3.9.138 7.844.227 11.748l.047 2.016c0 1.36.046 2.682.05 4.03 0 1.756.267 6.005-1.585 6.71-.224.349-.178.219-.224.786 0 .264.046.659.386.659h.143a1.226 1.226 0 0 1-.015-.295zM60.456 13.33c.008-.264.038-.528.089-.789.66-.31 4.597-.383 5.308-.383a9.174 9.174 0 0 1 1.19.027l-.022-.126-.178-.177c-.496-.093-1.001-.122-1.504-.088-.708 0-4.64.092-5.305.383-.052.26-.082.524-.089.79 0 .13 0 .44.174.44a.572.572 0 0 1 .34.054c-.003-.05-.003-.096-.003-.13z"/><path d="M68.918 39.777a3.243 3.243 0 0 0-.332-.249c.097.1.209.185.332.25z"/><path fill="#f7ab1f" d="M60.792 41.425c.042-.571 0-.437.22-.79 1.856-.705 1.585-4.958 1.585-6.709 0-1.356-.046-2.682-.046-4.03l-.047-2.016c-.092-3.901 0-7.848-.228-11.745-.042-.766-.178-1.866-1.044-2.207.414.49.5 1.26.53 1.843.224 3.901.14 7.844.232 11.745l.046 2.015c0 1.36.047 2.682.047 4.035 0 1.755.27 6.004-1.585 6.705-.22.353-.178.223-.22.794 0 .26.042.655.386.655h.143a1.48 1.48 0 0 1-.02-.295zM72.83 28.826h.028a2.423 2.423 0 0 1-.754-1.402c0-1.314 1.496-2.89 2.606-3.506a7.648 7.648 0 0 1 3.445-1.15c.313 0 .622-.046.932-.046a9.867 9.867 0 0 1 2.474.567c.089.054.159.111.24.165a6.282 6.282 0 0 0-.75-.525 9.685 9.685 0 0 0-2.479-.567c-.309 0-.618.046-.928.046a7.59 7.59 0 0 0-3.448 1.15c-1.106.613-2.606 2.191-2.606 3.51 0 .574.711 1.54 1.24 1.758zM85.108 38.996c.495.486.65.122.805-.096a.161.161 0 0 1 0-.046.38.38 0 0 0-.31-.483l-.092.042c-.155.062-.244.437-.495.452a.261.261 0 0 0 .092.13z"/><path fill="#f7ab1f" d="M71.758 40.67c-1.106-.877-1.771-2.629-1.771-3.989a7.113 7.113 0 0 1 .97-3.372c.274-.41.585-.795.928-1.15 2.297-2.019 3.58-2.298 6.457-2.896.352-.042 1.458-.264 1.632-.483.355-.44.135-1.15.266-1.318v-.766a1.903 1.903 0 0 0-.224-.828l.047-.046a2.69 2.69 0 0 0-1.272-1.43c.353.279.62.65.773 1.07l-.046.042c.135.258.21.544.22.835v.744c-.132.176.089.877-.267 1.314-.174.218-1.28.44-1.635.483-2.873.617-4.157.881-6.453 2.9a7.896 7.896 0 0 0-.928 1.15 7.071 7.071 0 0 0-.97 3.372c0 1.36.664 3.111 1.77 3.989.186.142.367.268.553.383zM81.131 41.057a3.565 3.565 0 0 1-.97-1.62c-.047 0-.09-.043-.136-.043h-.042c-.054.061-.1.119-.155.176.177.43.449.815.797 1.127.085.13.262.218.351.352l.279.13a.747.747 0 0 1-.124-.122ZM80.062 31.42h.046v-.574c0-.265-.263-.384-.53-.445a.298.298 0 0 1 0 .084v.571h-.042c-.043.383-.043.874-.043 1.272a20.47 20.47 0 0 1-.266 2.365c-.53 1.666-.53 2.191-2.254 2.191h-.22a3 3 0 0 1-.534-.191c.027.023.046.05.073.069l.043.088c.29.172.604.3.932.383h.22c1.724 0 1.724-.529 2.254-2.192.131-.784.219-1.574.263-2.368a10.7 10.7 0 0 1 .058-1.253zM98.234 24.14l-.143-.027c.096.156.166.325.209.502.042.383-.487.383-.665.655-.31.571-.573.571-.573 1.403 0 1.184.53 1.272.84 1.579.154.15.328.28.518.383-.314-.307-.843-.383-.843-1.579 0-.831.263-.831.572-1.402.178-.26.707-.26.665-.66a1.185 1.185 0 0 0-.58-.854zM99.09 39.95c.84-.177 1.322-.66 1.987-1.272a.813.813 0 0 1 .194.06 1.385 1.385 0 0 0-.704-.42c-.665.613-1.16 1.095-1.991 1.272a4.037 4.037 0 0 1-3.232-.437 4.036 4.036 0 0 0 3.746.797z"/><path fill="#f7ab1f" d="M87.45 36.145a12.623 12.623 0 0 1-.932-4.035c0-3.943 1.81-6.514 4.462-8.196a8.89 8.89 0 0 1 1.16-.571c1.415-.66 3.093-.766 4.64-.766a7.079 7.079 0 0 1 3.448 1.18c-1.16-.89-2.81-1.533-3.967-1.533-1.546 0-3.228.092-4.64.747-.4.164-.787.357-1.16.575-2.651 1.667-4.461 4.253-4.457 8.2 0 1.268.49 2.893.932 4.031a9.72 9.72 0 0 0 3.595 4.257 9.652 9.652 0 0 1-3.081-3.89zM111.964 24.588c.476.558.77 1.247.843 1.974a8.376 8.376 0 0 1-.178 1.793l-.085.13a19.95 19.95 0 0 1-2.939.495v.05a.317.317 0 0 0 .047.218l.177.13a20.62 20.62 0 0 0 3.229-.529l.085-.134a8.1 8.1 0 0 0 .178-1.797c-.004-.613-.588-2.073-1.357-2.33z"/><path fill="#f7ab1f" d="M102.222 32.67c0-5.564 4.327-9.645 9.809-9.691a5.664 5.664 0 0 1 3.136.855 5.654 5.654 0 0 0-3.646-1.227c-5.483.05-9.813 4.127-9.809 9.695a9.38 9.38 0 0 0 1.083 4.501 9.478 9.478 0 0 0 3.108 3.453 9.554 9.554 0 0 1-2.732-3.368 9.457 9.457 0 0 1-.949-4.218zM112.753 39.896c1.613.038 2.197-.64 3.523-1.245a1.285 1.285 0 0 0-.453-.383c-1.368.616-1.933 1.318-3.58 1.275a2.287 2.287 0 0 1-1.423-.524c.129.124.273.23.429.318.488.252.619.513 1.504.56zM144.214 39.65a7.652 7.652 0 0 0-.305-.405 2.73 2.73 0 0 1-2.026-.119 2.454 2.454 0 0 0 2.331.525zM138.668 33.827a11.714 11.714 0 0 0 2.339-6.622c0-.467-.352-.7-.723-.892.136.143.21.332.209.528a11.707 11.707 0 0 1-2.181 6.4c.105.198.232.402.356.586zM135.096 19.136c.302.318.475.735.487 1.172 0 1.487-.75 2.043-1.794 2.725.046.118.101.241.135.356l.178.134c1.16-.747 1.991-1.276 1.991-2.85a1.713 1.713 0 0 0-.276-.91 1.738 1.738 0 0 0-.721-.627zM139.206 25.673c.128.076.275.15.422.222a4.55 4.55 0 0 0-.267-.433l-.085-.383c.213-.295 3.866-1.196 4.721-1.269a1.697 1.697 0 0 0-.147-.383h-.267c-.615 0-4.597.966-4.821 1.272l.093.384c.042.053.309.536.351.59z"/><path fill="#f7ab1f" d="M123.232 34.486a5.063 5.063 0 0 1 .22-1.663c.526-1.885 1.717-4.215 3.53-5.131 0-.046.089-.172.131-.13.774-.617 1.64-1.012 2.436-1.583a8.759 8.759 0 0 1-1.33-4.337c0-1.184.259-2.453 1.233-3.246l1.017-.831c1.064-.767 1.903-.878 3.093-.882a4.84 4.84 0 0 1 2.579.767 4.87 4.87 0 0 0-3.093-1.127c-1.195 0-2.037.134-3.093.882l-1.017.831c-.97.79-1.237 2.062-1.237 3.246a8.819 8.819 0 0 0 1.33 4.34c-.796.568-1.678.963-2.428 1.576-.046-.042-.131.092-.131.13-1.814.927-3.008 3.25-3.534 5.135a5.093 5.093 0 0 0-.225 1.663 7.317 7.317 0 0 0 .872 3.433 7.375 7.375 0 0 0 2.388 2.632 7.365 7.365 0 0 1-2.021-2.546 7.297 7.297 0 0 1-.72-3.16z"/><path fill="#f7ab1f" d="M130.645 28.857c.386 1.069 1.206 3.701 1.979 4.92.774 2.234 1.547 2.977 1.906 3.9-.661.567-1.589 1.096-2.474 1.096a4.07 4.07 0 0 1-2.146-.567c.741.62 1.686.95 2.656.927.886 0 1.814-.525 2.479-1.095-.36-.92-1.16-1.667-1.906-3.897-.975-1.533-2.042-5.307-2.173-5.395a.8.8 0 0 0-.321.11z"/><path d="M136.237 40.053v-.088l-.112.08c.417.378.862.725 1.33 1.039-.406-.31-.8-.66-1.218-1.03z"/><path fill="#f7ab1f" d="M169.465 39.007c-.29.152-.604.257-.928.31-.046 0-.131.043-.178.043-.618.092-1.457.134-2.033-.219l-.224-.119.204.177c.172.11.348.21.53.302.576.353 1.415.31 2.038.219.042 0 .127-.042.178-.042.322-.056.634-.16.924-.31.18-.122.373-.225.576-.307a5.544 5.544 0 0 0 2.428-3.376c.089-.264.135-.57.22-.79 0 0-.042-.045 0-.041.22-.878.178-1.449.352-2.587.038-.144.054-.292.046-.44a.387.387 0 0 1 .047-.219v-1.314c0-.042.042-.307.042-.353 0-1.15.132-2.805-.355-3.854l-.267-.525-.043-.046a3.089 3.089 0 0 0-.974-.866c.172.15.327.32.46.505l.043.043.266.528c.484 1.05.356 2.717.356 3.855 0 .046-.043.307-.043.353v1.314a.385.385 0 0 0-.042.218c.008.147-.008.295-.046.437-.174 1.15-.132 1.713-.352 2.59-.043 0 0 .043 0 .043-.085.218-.132.525-.221.789a5.545 5.545 0 0 1-2.432 3.376c-.2.082-.392.185-.572.306zM171.095 21.389a3.349 3.349 0 0 1-.387-.046h-.445c-.045.157-.074.32-.085.483a.818.818 0 0 1-.046.218l-.085 1.406c0 .042.042.13.046.219.004.088.217.172.387.26h.097a.486.486 0 0 1-.028-.119l.086-1.406a.859.859 0 0 0 .046-.218c.046-.13 0-.307.085-.483h.445c.128.021.257.035.386.042 1.814 0 3.403.13 5.22.257l3.228.13c.28-.007.561.007.839.042.445 0 .487.13.932.134h.042a.87.87 0 0 0 .225.046h.112v-.153c0-.05-.089-.13-.178-.176-.089-.046-.309-.042-.441-.042a.858.858 0 0 1-.22-.046h-.047c-.44 0-.483-.13-.927-.13a5.609 5.609 0 0 0-.839-.043l-3.237-.119c-1.809-.13-3.398-.26-5.211-.256zM172.521 7.985a6.584 6.584 0 0 0-.607-.436l.093.072c.533.353 1.933 2.322 2.169 2.893.469.976.741 2.033.8 3.112v.352c.043.13-.089.437.043.483.15.053.305.088.464.103a.574.574 0 0 0 0-.226v-.352a8.373 8.373 0 0 0-.797-3.111c-.22-.568-1.635-2.54-2.165-2.89z"/><path d="M174.597 5.878a.839.839 0 0 0 .321.237 1.483 1.483 0 0 0-.387-.314c.024.024.046.05.066.077z"/><path fill="#f7ab1f" d="M155.204 35.302c-.267-.349-.445-.74-.712-1.096-2.122-3.108-3.143-8.047-2.749-12.706v-.307c.263-5.042 3.043-9.862 4.594-11.4 3.182-3.064 4.253-3.95 9.147-5.222a11.404 11.404 0 0 1 4.025-.356l1.28.13c.657-.038 2.277.54 3.213 1.088-.657-.613-2.919-1.494-3.723-1.448l-1.28-.13a11.31 11.31 0 0 0-4.025.36c-4.91 1.268-5.97 2.146-9.163 5.219-1.547 1.532-4.33 6.357-4.589 11.4v.306c-.387 4.644.626 9.58 2.748 12.71.267.348.445.743.708 1.092a17.166 17.166 0 0 0 4.292 4.575 18.039 18.039 0 0 1-3.766-4.215zM175.483 6.537c.043 0 .043 0 .043.042.124.081.253.154.386.219.047 0 .089.046.136.042h.263a.502.502 0 0 0 .22-.042c.131 0 .263-.13.356-.219.2-.17.365-.379.483-.613a.49.49 0 0 1 .093-.218.685.685 0 0 1 .131-.085c.445 0 .665.26.886.26a.116.116 0 0 1 .054 0 2.032 2.032 0 0 0-.565-.382c-.22 0-.441-.265-.885-.265a.821.821 0 0 0-.132.089.484.484 0 0 0-.089.218 1.978 1.978 0 0 1-.483.617c-.093.088-.224.218-.356.218a.508.508 0 0 1-.224.042h-.27c-.043 0-.089-.042-.136-.042l-.031-.019c.046.04.086.087.12.138zM190.047 25.504c.093.088.313.307.386.307.708 0 1.547-.836 2.873-.836a2.97 2.97 0 0 1 1.4.334 2.722 2.722 0 0 0-1.91-.694c-1.257 0-2.077.74-2.765.82zM189.77 40.176a4.458 4.458 0 0 0-.723-.28c.224.237.515.401.835.471a2 2 0 0 0-.112-.191zM181.213 41.287c0-1.31.971-.877 1.682-1.357.712-.478.437-1.532.437-2.233a58.48 58.48 0 0 1 .569-8.33c.088-.92.487-1.916.487-2.81a.771.771 0 0 0-.619-.835.97.97 0 0 1 .108.476c0 .877-.386 1.885-.487 2.804a58.041 58.041 0 0 0-.568 8.33c0 .702.22 1.752-.441 2.238-.661.487-1.678.046-1.678 1.357 0 .046 0 .483.089.529h.429c-.008-.073-.008-.15-.008-.169zM183.127 25.316a.797.797 0 0 1-.066-.333c.017-.228.077-.45.178-.655.928-.353 3.978-.487 5.026-.487.468 0 .913.023 1.369.03a1 1 0 0 0 .019-.218l-.22-.134c-.576 0-1.106-.042-1.682-.042-1.059 0-4.11.134-5.026.487-.101.206-.161.43-.178.659.004.479.282.594.58.693zM191.601 28.087c.019-.324.063-.645.132-.962a.333.333 0 0 0 .085-.218c0-.177-.174-.265-.352-.31-.072.032-.142.069-.209.11a.405.405 0 0 1-.035.054c-.068.32-.113.643-.135.97-.012.366.083.727.273 1.042.19.314.467.568.798.732a1.912 1.912 0 0 1-.557-1.418zM195.889 32.773a11.373 11.373 0 0 1 1.191-4.12 8.15 8.15 0 0 1 3.003-3.135 8.245 8.245 0 0 1 4.2-1.164 7.803 7.803 0 0 1 4.578 1.357 7.883 7.883 0 0 0-5.088-1.717 8.238 8.238 0 0 0-4.201 1.163 8.14 8.14 0 0 0-3.002 3.136 11.418 11.418 0 0 0-1.191 4.12c0 3.272 1.485 6.46 4.114 8.115-2.312-1.732-3.604-4.701-3.604-7.755z"/><path fill="#f7ab1f" d="M204.429 40.7c2.83 0 3.004-5.831 3.004-7.759 0-1.716-.116-6.38-2.107-7.38 1.52 1.476 1.593 5.476 1.593 7.009 0 1.916-.17 7.763-3 7.767a1.558 1.558 0 0 1-.661-.157 1.646 1.646 0 0 0 1.171.52zM220.073 25.29l.089.045a.322.322 0 0 1 .178-.088c.268-.402.564-.786.885-1.15a5.306 5.306 0 0 1 1.839-1.504 5.352 5.352 0 0 1 2.317-.557 4.736 4.736 0 0 1 2.119.521 2.493 2.493 0 0 0-.506-.36 4.727 4.727 0 0 0-2.127-.521 5.37 5.37 0 0 0-2.32.567c-.72.36-1.348.878-1.836 1.514a8.034 8.034 0 0 0-.773 1c.054.253.123.46.135.532zM230.677 37.474l-.046-.088a3.616 3.616 0 0 0-.201-.11c.131.124.278.23.437.317a.433.433 0 0 0-.19-.119zM229.659 26.309l.089.042.131-.042c.5-.502.972-1.029 1.416-1.579a4.205 4.205 0 0 1 3.004-1.1c.92.02 1.82.277 2.609.747a5.18 5.18 0 0 0-3.12-1.107 4.236 4.236 0 0 0-3.008 1.096c-.529.605-.839 1.011-1.225 1.395.054.23.104.471.104.548zM239.763 39.666c.118.084.249.148.387.192a.463.463 0 0 0-.062-.115v-.084c-.089-.046-.178-.046-.267-.135a.783.783 0 0 1-.29-.065.741.741 0 0 0 .232.207zM213.68 24.86h.116v-.295c0-.743.661-.835 1.237-.965a24.66 24.66 0 0 1 4.102-.483.885.885 0 0 1 0-.146c0-.042-.046-.084-.093-.13a.495.495 0 0 0-.263-.088 24.006 24.006 0 0 0-4.253.487c-.576.134-1.237.222-1.237.961v.441c.043.046.132.088.22.176zM232.249 40.727v-.134c.22-.482 1.461-.222 1.461-1.666 0-.219.085-.441.085-.702 0-.383.089-.79.085-1.226 0-.835.136-1.62.089-2.456v-.701c0-.832.043-1.71.043-2.54v-.353l-.039-.042c-.062-1.1-.062-2.15-.448-3.204l-.089-.084a.829.829 0 0 0-.48-.333l.058.057c.387 1.054.387 2.108.445 3.204l.046.042v.348c0 .836-.046 1.713-.042 2.545v.7c.042.832-.085 1.622-.085 2.453 0 .44-.089.835-.089 1.23 0 .26-.089.483-.089.701 0 1.445-1.237 1.184-1.458 1.667v.134c0 .215.178 1.269.356 1.269l.305-.035a5.076 5.076 0 0 1-.154-.874zM223.448 38.54c0-.744 1.105-.79 1.504-1.315.22-.352.135-1.053.131-1.402 0-1.885.089-3.77.217-5.698l.046-1.62c-.093-.441-.093-.966-.224-1.407a6.703 6.703 0 0 0-.445-.766c-.066-.169-.294-.234-.471-.295.149.227.278.467.386.716.099.465.174.934.224 1.406l-.042 1.621c-.132 1.916-.221 3.832-.217 5.698 0 .353.089 1.054-.131 1.402-.387.53-1.504.575-1.504 1.315.012.207.041.414.089.617l.089.046c0 .042.042.084.089.13l.293-.035a2.208 2.208 0 0 1-.034-.413zM220.289 39.77a.82.82 0 0 0 .193.13c.132.144.3.25.488.306a.536.536 0 0 0-.024-.053 1.59 1.59 0 0 0-.657-.383zM213.147 41.176c.021-.253.112-.496.263-.701.135-.042.309-.13.441-.177.309-.13.622.088.932-.348.131-.177.085-.384.131-.571a.76.76 0 0 1-.046-.437c0-.44-.085-.877-.085-1.318 0-.655-.14-1.31-.182-1.97a146.237 146.237 0 0 1-.093-4.337c0-.44.131-.878.131-1.318 0-.177.047-.353.047-.567.02-1.087.108-2.17.263-3.246a1.021 1.021 0 0 0-.534-.966h-.135c.118.18.172.393.155.606a26.917 26.917 0 0 0-.263 3.245c0 .215-.043.384-.043.568 0 .436-.131.877-.131 1.314 0 1.448.046 2.897.092 4.341.047.66.178 1.314.178 1.97 0 .436.085.877.089 1.314a.765.765 0 0 0 .047.44c-.047.177 0 .384-.136.572-.305.436-.614.218-.928.348-.131.046-.309.134-.44.176a1.369 1.369 0 0 0-.267.702c.007.257.038.514.093.766l.085.13c.139.023.266.042.386.054a3.432 3.432 0 0 1-.05-.59zM250.247 39.44c.108.035.201.05.282.07-.143-.315-.29-.319-.576-.384a.673.673 0 0 0 .294.314zM241.343 20.423c-.351-.92-.665-1.916-.177-2.762a5.498 5.498 0 0 1 1.504-1.621 3.811 3.811 0 0 1 1.589-.53 4.023 4.023 0 0 1 2.192.265l-.047-.053c-.974-.878-2.656-.571-2.656-.571a3.839 3.839 0 0 0-1.593.529 5.563 5.563 0 0 0-1.5 1.62c-.483.836-.174 1.843.178 2.763a3.465 3.465 0 0 0 1.434 1.533 3.1 3.1 0 0 1-.924-1.173zM242.29 41.023c0-.384 0-.874.263-1.15.576-.57 1.771-.306 1.933-1.318l.046-.038c.085-.882.132-1.755.132-2.683 0-2.456-.186-6.924-.851-8.94a.624.624 0 0 0-.495-.306c.654 2.039.832 6.453.832 8.886.002.896-.042 1.791-.132 2.682l-.042.05c-.178 1.004-1.369.74-1.933 1.31-.267.265-.263.767-.263 1.15a.658.658 0 0 0 .085.383c.137.06.283.099.433.115a.96.96 0 0 1-.008-.141zM242.189 25.945a3.889 3.889 0 0 1 .043-1.05c1.283-.835 4.508-1.23 6.012-1.234h.259c-.035-.16-.081-.31-.151-.337-.174 0-.441-.042-.619-.042-1.504 0-4.732.383-6.012 1.234-.06.346-.076.699-.046 1.05 0 .088.046.222.046.352a.646.646 0 0 0 .499.245 1.783 1.783 0 0 1-.031-.218zM264.88 36.099c.114.037.223.087.325.15a2.6 2.6 0 0 0-.835-.51 3.427 3.427 0 0 1-1.227 1.174 3.465 3.465 0 0 1-1.646.447 3.656 3.656 0 0 1-1.759-.384 3.21 3.21 0 0 0 2.274.725 3.445 3.445 0 0 0 1.642-.436c.501-.28.923-.681 1.226-1.166zM260.937 20.63l.132.13c1.109.115 2.184.169 3.282.272a.513.513 0 0 0-.124-.33c-1.117-.118-2.199-.168-3.317-.275zM252.366 33.083c0-3.375.924-6.84 1.805-10.039l-.135-.13-.425-.061c-.866 3.153-1.759 6.552-1.756 9.87 0 3.066 1.037 6.46 3.527 8.047-2.138-1.686-3.016-4.844-3.016-7.687zM251.912 20.726c.796-.134 1.635 0 2.478 0l.352-.046.221-.218c.266-.568.386-1.315.661-2.104.274-.79.618-1.667.885-2.456l.267-.088c1.384.314 2.842.207 4.307.494v-.245c-1.636-.437-3.275-.257-4.821-.61l-.267.089c-.263.789-.615 1.666-.878 2.456-.263.789-.386 1.532-.665 2.103l-.22.219-.356.042c-.839 0-1.678-.127-2.474 0a2.82 2.82 0 0 0-.48 1.797v.088l.089.13h.422a2.725 2.725 0 0 1 .479-1.651z"/></g></svg>